<svg width="44" height="44" viewBox="0 0 44 44" fill="none" xmlns="http://www.w3.org/2000/svg">
<circle cx="22" cy="22" r="21.5" fill="#D8E2DE" stroke="black"/>
<path d="M28.584 11.7226C28.7371 11.4929 29.0476 11.4308 29.2773 11.584C29.5071 11.7371 29.5692 12.0476 29.416 12.2773L16.416 31.7773C16.2628 32.0071 15.9524 32.0692 15.7226 31.916C15.4929 31.7628 15.4308 31.4524 15.584 31.2226L28.584 11.7226ZM26 26C27.6568 26 29 27.3431 29 29C29 30.6568 27.6568 32 26 32C24.3431 32 23 30.6568 23 29C23 27.3432 24.3432 26 26 26ZM26 27C24.8954 27 24 27.8955 24 29C24 30.1045 24.8954 31 26 31C27.1045 31 28 30.1046 28 29C28 27.8954 27.1045 27 26 27ZM19 12C20.6568 12 22 13.3431 22 15C22 16.6568 20.6568 18 19 18C17.3431 18 16 16.6568 16 15C16 13.3432 17.3432 12 19 12ZM19 13C17.8954 13 17 13.8955 17 15C17 16.1045 17.8954 17 19 17C20.1045 17 21 16.1046 21 15C21 13.8954 20.1045 13 19 13Z" fill="black"/>
</svg>
