<svg width="17" height="22" viewBox="0 0 17 22" fill="none" xmlns="http://www.w3.org/2000/svg">
<g clip-path="url(#clip0_33_129)">
<path d="M8.51596 0H9.35594C9.6994 0.059082 10.0471 0.0993652 10.3853 0.181006C13.1472 0.849707 15.1496 3.3709 15.1964 6.27397C15.2058 6.85352 15.2016 7.43359 15.2043 8.01313C15.2043 8.08833 15.2043 8.16353 15.2043 8.25C15.6434 8.25 16.049 8.24785 16.4545 8.25054C16.8243 8.25269 16.9984 8.42617 16.9984 8.80107C16.9994 12.5737 17.0005 16.3464 16.9978 20.119C16.9978 20.7432 16.7717 21.2781 16.2609 21.6299C16.0085 21.804 15.6913 21.8797 15.4036 22H2.4683C2.4562 21.993 2.44463 21.9823 2.43148 21.9801C1.50734 21.8501 0.861442 21.0488 0.866176 19.9901C0.882481 16.2889 0.872487 12.5882 0.872487 8.88701C0.872487 8.39717 1.01766 8.25054 1.50103 8.25C1.88341 8.25 2.26527 8.25 2.66711 8.25C2.66711 7.6667 2.67027 7.10972 2.66659 6.55273C2.6587 5.45972 2.8754 4.41987 3.38191 3.45469C4.22663 1.84443 5.50422 0.76377 7.22416 0.257275C7.64389 0.13374 8.08466 0.0837891 8.51543 0H8.51596ZM12.5165 8.24033C12.5165 7.71719 12.527 7.21606 12.5128 6.71548C12.5028 6.35239 12.5028 5.97964 12.424 5.62891C11.9953 3.7168 10.3158 2.53945 8.41392 2.79351C6.90174 2.99546 5.60574 4.28613 5.41218 5.8373C5.34065 6.40879 5.36957 6.99424 5.3559 7.57324C5.35064 7.79238 5.35485 8.01206 5.35485 8.24087H12.516L12.5165 8.24033ZM8.91728 18.3364C9.19026 18.3364 9.46324 18.3407 9.73569 18.3353C10.137 18.3272 10.3132 18.107 10.2669 17.6967C10.1786 16.9152 10.0934 16.1332 10.0145 15.3506C10.0081 15.2867 10.0408 15.1954 10.0865 15.1535C10.5636 14.7168 10.7692 14.1829 10.7066 13.5255C10.6072 12.483 9.52162 11.6982 8.52911 11.97C7.81746 12.165 7.35197 12.6301 7.19313 13.3611C7.04218 14.0567 7.24783 14.6588 7.77223 15.1427C7.82588 15.1921 7.86059 15.3006 7.85323 15.3758C7.77591 16.1584 7.68807 16.9404 7.60286 17.7225C7.56079 18.107 7.73962 18.3246 8.1199 18.3348C8.38552 18.3423 8.65166 18.3364 8.91728 18.3364Z" fill="#283B41"/>
</g>
<defs>
<clipPath id="clip0_33_129">
<rect width="16.1333" height="22" fill="white" transform="translate(0.866699)"/>
</clipPath>
</defs>
</svg>
