<svg width="44" height="44" viewBox="0 0 44 44" fill="none" xmlns="http://www.w3.org/2000/svg">
<circle cx="22" cy="22" r="21.5" fill="#D8E2DE" stroke="black"/>
<path d="M28.3644 35.267L27.9753 36.1882L16.9212 31.5184L17.3103 30.5972L28.3644 35.267ZM36.1474 16.8435L25.0933 12.1737L16.9212 31.5184C16.4124 31.3035 16.1742 30.7168 16.3891 30.2081L24.1721 11.7846C24.3871 11.2758 24.9737 11.0376 25.4825 11.2526L36.5366 15.9223C37.0453 16.1373 37.2835 16.7239 37.0686 17.2327L29.2856 35.6562C29.0707 36.1649 28.484 36.4031 27.9753 36.1882L36.1474 16.8435Z" fill="black"/>
<path d="M29.0213 26.0327C30.0622 24.7437 29.861 22.8549 28.572 21.8139C27.2829 20.773 25.3941 20.9742 24.3532 22.2633C23.3123 23.5523 23.5134 25.4411 24.8025 26.482L24.1742 27.2601C22.4555 25.8722 22.1873 23.3538 23.5752 21.635C24.963 19.9163 27.4815 19.648 29.2002 21.0359C30.9189 22.4238 31.1872 24.9422 29.7993 26.661C28.4114 28.3797 25.893 28.6479 24.1742 27.2601L24.8025 26.482C26.0915 27.5229 27.9804 27.3218 29.0213 26.0327Z" fill="black"/>
<path d="M7.27596 11.8246C7.12355 11.2937 7.43033 10.7399 7.96117 10.5874L19.4952 7.27593C20.026 7.12352 20.5799 7.4303 20.7323 7.96114L26.2515 27.1845C26.4039 27.7154 26.0971 28.2692 25.5663 28.4217L14.0323 31.7332C13.5014 31.8856 12.9476 31.5788 12.7951 31.048L7.27596 11.8246Z" fill="#D8E2DE"/>
<path d="M25.2903 27.4605L25.5663 28.4217L14.0323 31.7332L13.7563 30.772L25.2903 27.4605ZM19.7712 8.2371L8.23713 11.5486L14.0323 31.7332C13.5014 31.8856 12.9476 31.5788 12.7951 31.048L7.27596 11.8246C7.12355 11.2937 7.43033 10.7399 7.96117 10.5874L19.4952 7.27593C20.026 7.12352 20.5799 7.4303 20.7323 7.96114L26.2515 27.1845C26.4039 27.7154 26.0971 28.2692 25.5663 28.4217L19.7712 8.2371Z" fill="black"/>
<path d="M20 19.8634C20 18.2065 18.6569 16.8634 17 16.8634C15.3431 16.8634 14 18.2065 14 19.8634C14 21.5203 15.3431 22.8634 17 22.8634V23.8634C14.7909 23.8634 13 22.0725 13 19.8634C13 17.6543 14.7909 15.8634 17 15.8634C19.2091 15.8634 21 17.6543 21 19.8634C21 22.0725 19.2091 23.8634 17 23.8634V22.8634C18.6569 22.8634 20 21.5203 20 19.8634Z" fill="black"/>
</svg>
