<svg width="44" height="44" viewBox="0 0 44 44" fill="none" xmlns="http://www.w3.org/2000/svg">
<circle cx="22" cy="22" r="22" fill="#D8E2DE"/>
<path d="M22.0586 23.0294C24.7862 23.0294 27.2323 23.4957 28.9775 24.2306C29.8512 24.5984 30.5259 25.0242 30.9746 25.4708C31.4212 25.9155 31.6172 26.3523 31.6172 26.7648C31.6172 27.1772 31.4212 27.614 30.9746 28.0587C30.5259 28.5054 29.8512 28.9311 28.9775 29.299C27.2323 30.0338 24.7862 30.5001 22.0586 30.5001C19.3314 30.5001 16.8858 30.0337 15.1406 29.299C14.267 28.9311 13.5923 28.5054 13.1436 28.0587C12.6968 27.614 12.5 27.1773 12.5 26.7648C12.5 26.3523 12.6968 25.9156 13.1436 25.4708C13.5923 25.0242 14.267 24.5984 15.1406 24.2306C16.8858 23.4959 19.3313 23.0294 22.0586 23.0294Z" fill="#D8E2DE" stroke="black"/>
<path d="M22.0586 19.8529C24.7862 19.8529 27.2323 20.3192 28.9775 21.0541C29.8512 21.4219 30.5259 21.8476 30.9746 22.2943C31.4212 22.739 31.6172 23.1758 31.6172 23.5883C31.6172 24.0007 31.4212 24.4375 30.9746 24.8822C30.5259 25.3289 29.8512 25.7546 28.9775 26.1224C27.2323 26.8573 24.7862 27.3236 22.0586 27.3236C19.3314 27.3236 16.8858 26.8572 15.1406 26.1224C14.267 25.7546 13.5923 25.3289 13.1436 24.8822C12.6968 24.4374 12.5 24.0007 12.5 23.5883C12.5 23.1758 12.6968 22.7391 13.1436 22.2943C13.5923 21.8476 14.267 21.4219 15.1406 21.0541C16.8858 20.3194 19.3313 19.8529 22.0586 19.8529Z" fill="#D8E2DE" stroke="black"/>
<path d="M22.0586 16.6765C24.7862 16.6765 27.2323 17.1428 28.9775 17.8777C29.8512 18.2455 30.5259 18.6713 30.9746 19.1179C31.4212 19.5626 31.6172 19.9994 31.6172 20.4119C31.6172 20.8243 31.4212 21.2611 30.9746 21.7058C30.5259 22.1525 29.8512 22.5782 28.9775 22.946C27.2323 23.6809 24.7862 24.1472 22.0586 24.1472C19.3314 24.1472 16.8858 23.6808 15.1406 22.946C14.267 22.5782 13.5923 22.1525 13.1436 21.7058C12.6968 21.2611 12.5 20.8244 12.5 20.4119C12.5 19.9994 12.6968 19.5627 13.1436 19.1179C13.5923 18.6712 14.267 18.2455 15.1406 17.8777C16.8858 17.143 19.3313 16.6765 22.0586 16.6765Z" fill="#D8E2DE" stroke="black"/>
<path d="M22.0586 13.5C24.7862 13.5 27.2323 13.9663 28.9775 14.7012C29.8512 15.069 30.5259 15.4947 30.9746 15.9414C31.4212 16.3861 31.6172 16.8229 31.6172 17.2354C31.6172 17.6478 31.4212 18.0846 30.9746 18.5293C30.5259 18.976 29.8512 19.4017 28.9775 19.7695C27.2323 20.5044 24.7862 20.9707 22.0586 20.9707C19.3314 20.9707 16.8858 20.5042 15.1406 19.7695C14.267 19.4017 13.5923 18.9759 13.1436 18.5293C12.6968 18.0845 12.5 17.6478 12.5 17.2354C12.5 16.8228 12.6968 16.3862 13.1436 15.9414C13.5923 15.4947 14.267 15.069 15.1406 14.7012C16.8858 13.9664 19.3313 13.5 22.0586 13.5Z" fill="#D8E2DE" stroke="black"/>
</svg>
