<svg width="44" height="44" viewBox="0 0 44 44" fill="none" xmlns="http://www.w3.org/2000/svg">
<circle cx="22" cy="22" r="21.5" fill="#D8E2DE" stroke="black"/>
<path d="M32.1176 26.7647C32.1176 29.1038 27.6142 31 22.0588 31C16.5035 31 12 29.1038 12 26.7647C12 24.4256 16.5035 22.5294 22.0588 22.5294C27.6142 22.5294 32.1176 24.4256 32.1176 26.7647Z" fill="#D8E2DE"/>
<path d="M31.1172 26.7648C31.1172 26.5246 31.0063 26.208 30.6221 25.8253C30.2337 25.4387 29.6204 25.044 28.7832 24.6915C27.113 23.9883 24.736 23.5294 22.0586 23.5294C19.3812 23.5294 17.0042 23.9883 15.334 24.6915C14.4969 25.044 13.8845 25.4387 13.4961 25.8253C13.1116 26.2081 13 26.5246 13 26.7648C13 27.005 13.1116 27.3215 13.4961 27.7042C13.8845 28.0908 14.4969 28.4855 15.334 28.838C17.0042 29.5413 19.3812 30.0001 22.0586 30.0001V31.0001L21.541 30.9943C16.3976 30.8844 12.2732 29.1482 12.0127 26.9825L12 26.7648C12 24.4257 16.5034 22.5295 22.0586 22.5294C27.6139 22.5294 32.1172 24.4257 32.1172 26.7648L32.1045 26.9825C31.8352 29.2204 27.4404 31.0001 22.0586 31.0001V30.0001C24.7359 30.0001 27.113 29.5412 28.7832 28.838C29.6204 28.4855 30.2337 28.0909 30.6221 27.7042C31.0063 27.3216 31.1172 27.0049 31.1172 26.7648Z" fill="black"/>
<path d="M32.1176 23.5882C32.1176 25.9273 27.6142 27.8235 22.0588 27.8235C16.5035 27.8235 12 25.9273 12 23.5882C12 21.2491 16.5035 19.3529 22.0588 19.3529C27.6142 19.3529 32.1176 21.2491 32.1176 23.5882Z" fill="#D8E2DE"/>
<path d="M31.1172 23.5883C31.1172 23.3481 31.0063 23.0315 30.6221 22.6488C30.2337 22.2622 29.6204 21.8675 28.7832 21.515C27.113 20.8118 24.736 20.3529 22.0586 20.3529C19.3812 20.353 17.0042 20.8118 15.334 21.515C14.4969 21.8675 13.8845 22.2622 13.4961 22.6488C13.1116 23.0316 13 23.3481 13 23.5883C13 23.8285 13.1116 24.145 13.4961 24.5277C13.8845 24.9144 14.4969 25.3091 15.334 25.6615C17.0042 26.3648 19.3812 26.8236 22.0586 26.8236V27.8236L21.541 27.8178C16.3976 27.708 12.2732 25.9717 12.0127 23.8061L12 23.5883C12 21.2492 16.5034 19.353 22.0586 19.3529C27.6139 19.3529 32.1172 21.2492 32.1172 23.5883L32.1045 23.8061C31.8352 26.0439 27.4404 27.8236 22.0586 27.8236V26.8236C24.7359 26.8236 27.113 26.3647 28.7832 25.6615C29.6204 25.309 30.2337 24.9144 30.6221 24.5277C31.0063 24.1451 31.1172 23.8284 31.1172 23.5883Z" fill="black"/>
<path d="M32.1176 20.4118C32.1176 22.7509 27.6142 24.6471 22.0588 24.6471C16.5035 24.6471 12 22.7509 12 20.4118C12 18.0727 16.5035 16.1765 22.0588 16.1765C27.6142 16.1765 32.1176 18.0727 32.1176 20.4118Z" fill="#D8E2DE"/>
<path d="M31.1172 20.4118C31.1172 20.1717 31.0063 19.855 30.6221 19.4724C30.2337 19.0857 29.6204 18.6911 28.7832 18.3386C27.113 17.6354 24.736 17.1765 22.0586 17.1765C19.3812 17.1765 17.0042 17.6354 15.334 18.3386C14.4969 18.6911 13.8845 19.0858 13.4961 19.4724C13.1116 19.8552 13 20.1716 13 20.4118C13 20.652 13.1116 20.9685 13.4961 21.3513C13.8845 21.7379 14.4969 22.1326 15.334 22.4851C17.0042 23.1883 19.3812 23.6472 22.0586 23.6472V24.6472L21.541 24.6413C16.3976 24.5315 12.2732 22.7953 12.0127 20.6296L12 20.4118C12 18.0728 16.5034 16.1765 22.0586 16.1765C27.6139 16.1765 32.1172 18.0727 32.1172 20.4118L32.1045 20.6296C31.8352 22.8675 27.4404 24.6472 22.0586 24.6472V23.6472C24.7359 23.6472 27.113 23.1883 28.7832 22.4851C29.6204 22.1326 30.2337 21.7379 30.6221 21.3513C31.0063 20.9686 31.1172 20.652 31.1172 20.4118Z" fill="black"/>
<path d="M32.1176 17.2353C32.1176 19.5744 27.6142 21.4706 22.0588 21.4706C16.5035 21.4706 12 19.5744 12 17.2353C12 14.8962 16.5035 13 22.0588 13C27.6142 13 32.1176 14.8962 32.1176 17.2353Z" fill="#D8E2DE"/>
<path d="M31.1172 17.2354C31.1172 16.9952 31.0063 16.6786 30.6221 16.2959C30.2337 15.9093 29.6204 15.5146 28.7832 15.1621C27.113 14.4589 24.736 14 22.0586 14C19.3812 14 17.0042 14.4589 15.334 15.1621C14.4969 15.5146 13.8845 15.9093 13.4961 16.2959C13.1116 16.6787 13 16.9952 13 17.2354C13 17.4756 13.1116 17.792 13.4961 18.1748C13.8845 18.5614 14.4969 18.9561 15.334 19.3086C17.0042 20.0118 19.3812 20.4707 22.0586 20.4707V21.4707L21.541 21.4648C16.3976 21.355 12.2732 19.6188 12.0127 17.4531L12 17.2354C12 14.8963 16.5034 13.0001 22.0586 13C27.6139 13 32.1172 14.8963 32.1172 17.2354L32.1045 17.4531C31.8352 19.691 27.4404 21.4707 22.0586 21.4707V20.4707C24.7359 20.4707 27.113 20.0118 28.7832 19.3086C29.6204 18.9561 30.2337 18.5614 30.6221 18.1748C31.0063 17.7922 31.1172 17.4755 31.1172 17.2354Z" fill="black"/>
</svg>
