<svg width="44" height="44" viewBox="0 0 44 44" fill="none" xmlns="http://www.w3.org/2000/svg">
<circle cx="22" cy="22" r="22" fill="#D8E2DE"/>
<path d="M10.626 33.5385C10.6473 33.8138 10.8878 34.0197 11.1631 33.9984C11.4384 33.9771 11.6444 33.7367 11.6231 33.4614L10.626 33.5385ZM19.1246 28.4999L18.627 28.5493L19.6231 28.4618L19.1246 28.4999ZM27.6246 26L27.1251 26.0236L28.0888 26.1857L27.6246 26ZM34.0841 10.803C33.9754 10.5492 33.6814 10.4316 33.4276 10.5404L29.2914 12.3131C29.0376 12.4218 28.9201 12.7158 29.0288 12.9696C29.1376 13.2234 29.4315 13.341 29.6854 13.2322L33.3619 11.6565L34.9376 15.3331C35.0464 15.5869 35.3403 15.7045 35.5942 15.5957C35.848 15.4869 35.9655 15.193 35.8568 14.9392L34.0841 10.803ZM11.1246 33.4999L11.6231 33.4614C11.4581 31.3285 11.4097 28.0809 11.7949 25.2734C11.9879 23.8671 12.2858 22.6016 12.7149 21.6484C13.1499 20.6818 13.6714 20.139 14.254 19.9829L14.1246 19.4999L13.9951 19.017C12.9777 19.2896 12.2825 20.1724 11.803 21.2379C11.3174 22.3167 11.0029 23.6896 10.8042 25.1375C10.4061 28.0383 10.4577 31.3619 10.626 33.5385L11.1246 33.4999ZM14.1246 19.4999L14.254 19.9829C14.856 19.8216 15.3773 19.99 15.8718 20.4415C16.3861 20.9113 16.8455 21.6709 17.2381 22.6119C18.0202 24.4865 18.4629 26.8969 18.627 28.5493L19.1246 28.4999L19.6221 28.4505C19.4528 26.7457 18.9956 24.2274 18.161 22.2269C17.7453 21.2304 17.2171 20.3159 16.5461 19.7031C15.8552 19.0722 14.9932 18.7495 13.9951 19.017L14.1246 19.4999ZM19.1246 28.4999L19.6231 28.4618C19.4582 26.3074 19.4352 23.0866 19.8924 20.4206C20.1217 19.0831 20.4651 17.9283 20.9425 17.1209C21.4156 16.3207 21.9681 15.9377 22.6246 15.9377V15.4377V14.9377C21.481 14.9377 20.6544 15.6433 20.0817 16.6119C19.5132 17.5734 19.1441 18.8677 18.9068 20.2516C18.4306 23.0281 18.4576 26.3384 18.626 28.5381L19.1246 28.4999ZM22.6246 15.4377V15.9377C23.3403 15.9377 23.9651 16.2812 24.5245 16.9219C25.0906 17.5702 25.5615 18.4945 25.9407 19.5655C26.6982 21.7046 27.0432 24.2928 27.1251 26.0236L27.6246 26L28.124 25.9764C28.0393 24.1864 27.6843 21.4935 26.8834 19.2317C26.4834 18.1022 25.9606 17.0461 25.2777 16.2641C24.5882 15.4744 23.7089 14.9377 22.6246 14.9377V15.4377ZM27.6246 26L28.0888 26.1857L34.0888 11.1857L33.6246 11L33.1603 10.8143L27.1603 25.8143L27.6246 26Z" fill="black"/>
</svg>
