<svg width="44" height="44" viewBox="0 0 44 44" fill="none" xmlns="http://www.w3.org/2000/svg">
<circle cx="22" cy="22" r="21.5" fill="#D8E2DE" stroke="black"/>
<path d="M33.4278 10.54C33.6814 10.4315 33.9752 10.5492 34.084 10.8027L35.8565 14.9394C35.9652 15.1932 35.8475 15.4869 35.5938 15.5957C35.34 15.7042 35.0462 15.5867 34.9375 15.333L33.6406 12.3057L28.0889 26.1855L27.125 26.0234C27.0431 24.2926 26.6979 21.7045 25.9404 19.5654C25.5612 18.4945 25.0905 17.5701 24.5244 16.9219C23.9651 16.2814 23.3405 15.9376 22.625 15.9375C21.9686 15.9375 21.4155 16.3209 20.9424 17.1211C20.4651 17.9285 20.1219 19.0835 19.8926 20.4209C19.4355 23.0868 19.4581 26.3076 19.6231 28.4619L18.627 28.5498C18.4629 26.8975 18.0203 24.4868 17.2383 22.6123C16.8457 21.6714 16.3864 20.9111 15.8721 20.4414C15.3776 19.9898 14.8559 19.8211 14.2539 19.9824C13.6714 20.1385 13.1499 20.6819 12.7149 21.6484C12.2858 22.6017 11.9879 23.8672 11.7949 25.2734C11.4097 28.0807 11.4581 31.3281 11.6231 33.4609C11.6444 33.7363 11.4384 33.9767 11.1631 33.998C10.922 34.0167 10.7074 33.8615 10.6436 33.6377L10.626 33.5381L10.5694 32.6719C10.4521 30.5379 10.4564 27.676 10.8047 25.1377C11.0034 23.69 11.3173 22.317 11.8028 21.2383C12.2823 20.1728 12.9777 19.2892 13.9951 19.0166C14.9931 18.7492 15.855 19.0722 16.5459 19.7031C17.2169 20.3159 17.7454 21.2301 18.1612 22.2266C18.3112 22.5861 18.4471 22.9633 18.5733 23.3486C18.6315 22.2982 18.7376 21.2413 18.9072 20.2519C19.1445 18.8682 19.5136 17.5737 20.082 16.6123C20.6548 15.6436 21.4815 14.9375 22.625 14.9375C23.7089 14.9376 24.588 15.4743 25.2774 16.2637C25.9602 17.0456 26.4839 18.102 26.8838 19.2314C27.4113 20.7211 27.7418 22.3983 27.9326 23.8809L32.711 11.9346L29.6856 13.2324C29.4318 13.3412 29.1382 13.2233 29.0293 12.9697C28.9206 12.7161 29.0376 12.4224 29.291 12.3135L33.4278 10.54Z" fill="black"/>
</svg>
