<svg width="17" height="23" viewBox="0 0 17 23" fill="none" xmlns="http://www.w3.org/2000/svg">
<g clip-path="url(#clip0_40_133)">
<path d="M3.78457 15.428C3.91526 15.6193 4.15823 15.7522 4.41435 15.8371C4.44724 15.6585 4.42641 15.4815 4.38694 15.3052C4.31304 15.0187 3.96329 14.8445 3.66068 14.6944C3.58832 14.9386 3.64138 15.2034 3.78435 15.4281L3.78457 15.428ZM4.35449 16.0727C3.77295 16.0179 3.4039 15.3251 3.31794 14.9415C3.28702 14.761 3.24448 14.5374 3.42254 14.3919C3.5824 14.2775 3.78918 14.3622 3.92447 14.4573C4.31765 14.6614 4.6253 14.9913 4.59482 15.3635C4.59021 15.5443 4.56938 15.7269 4.49658 15.9002C4.53846 15.9648 4.48627 16.0488 4.39461 16.068C4.38694 16.0726 4.37817 16.0752 4.36918 16.0752C4.36435 16.0752 4.35931 16.0745 4.35449 16.0727Z" fill="#D93429"/>
<path d="M16.7549 12.7367C17.2645 12.7992 16.838 13.2195 16.7347 13.4224C16.6323 13.597 16.5437 13.776 16.4757 13.9599C16.2959 14.3815 16.3095 14.8251 16.2861 15.2624C16.2573 15.9947 16.0348 16.7156 15.6738 17.3948C16.1273 17.3493 17.4857 17.0356 16.6277 17.695C16.0964 18.1569 15.7466 18.714 15.3765 19.2523C14.9726 19.8801 14.4972 20.4814 13.8437 20.9818C13.2255 21.4981 12.5331 22.0033 11.6143 22.1858C10.4363 22.4716 9.76923 22.1768 8.66274 22.0087C8.54279 22.0443 8.42131 22.0809 8.29829 22.1166C8.19786 22.161 8.09151 22.1974 7.98582 22.2341C7.89284 22.2664 7.7957 22.292 7.69856 22.3163C7.60208 22.3409 7.50384 22.3633 7.40428 22.3798C7.2885 22.3991 7.17272 22.4159 7.05563 22.431C6.99883 22.4384 6.94029 22.4412 6.88283 22.4465C6.82341 22.4518 6.76245 22.452 6.70258 22.4543C6.66531 22.4557 6.62781 22.4562 6.59031 22.4562C6.40875 22.4562 6.22762 22.4411 6.04781 22.4239C6.01338 22.4206 5.97896 22.4149 5.94475 22.4104C5.90352 22.4048 5.86208 22.4 5.82129 22.3928C5.76888 22.3836 5.71648 22.3742 5.66407 22.365C5.56868 22.348 5.47527 22.3223 5.3847 22.2949C5.1003 22.2092 4.85974 22.0632 4.63652 21.9089C4.51153 21.8223 4.38675 21.735 4.2633 21.6472C4.20387 21.605 4.14467 21.5627 4.08634 21.5196C4.05125 21.4938 4.01683 21.4676 3.98196 21.4417C3.56905 21.2985 3.11207 21.2189 2.77197 20.9767C1.07341 19.8378 0.117787 17.5507 0.0213031 15.8708C-0.0422884 15.1751 0.0377492 14.476 0.244531 13.7966C0.398248 13.2922 0.587049 12.7903 0.637483 12.2721C0.677173 11.6085 0.465348 10.9333 0.706557 10.2806C0.90084 9.74425 1.30081 9.22915 1.91019 8.90273C2.08364 8.82941 2.28823 8.63349 2.49721 8.72494C2.66277 8.84177 2.40336 9.09338 2.36761 9.23245C2.22596 9.56398 2.19964 9.91545 2.15864 10.2603C2.02115 10.8074 2.56913 11.2777 2.47681 11.8191C2.41498 12.275 1.67249 13.1289 2.51563 13.3728C3.41753 13.3431 3.78592 12.5082 3.91969 11.9422C3.94052 11.4108 3.46468 10.969 3.31162 10.4665C3.06712 9.78247 3.42301 9.08382 3.83022 8.47662C4.38149 7.67136 4.34246 7.13122 3.97494 6.2935C3.92648 6.18096 3.98481 6.0231 4.1712 6.0208C4.54508 6.06924 4.99 6.62487 5.17134 6.86906C5.43974 7.21855 5.41847 7.62374 5.42922 8.00997C5.51211 8.40643 5.93861 7.96664 6.00702 7.79132C6.19012 7.23256 6.03685 6.63953 6.24034 6.08176C6.45765 5.28853 7.57138 4.87741 7.8503 4.11203C8.27176 2.91542 7.52313 1.77187 8.60616 0.660129C8.85724 0.424005 9.11512 0.150477 9.47342 0.00629733C9.7234 -0.0375332 9.82844 0.173875 9.70213 0.315088C9.4004 0.940579 9.34624 1.67021 9.68196 2.29356C10.0251 2.78113 10.5505 3.17445 10.7948 3.69943C11.0371 3.95401 10.9898 5.82389 11.6239 5.48923C11.9458 5.26101 11.9331 4.89027 12.0973 4.60471C12.6267 4.25077 12.9475 5.97087 12.883 6.19925C12.8626 6.55862 12.6826 6.89526 12.5238 7.23009C12.2568 7.91012 11.8432 8.62278 12.052 9.34219C12.1063 9.48686 12.2471 9.89913 12.4811 9.88233C12.4717 9.88727 12.4631 9.89155 12.4539 9.89617C12.9732 9.67949 12.769 8.40709 13.1694 8.33903C13.5146 8.29421 13.7422 8.70599 13.9187 8.88016C14.6829 9.72315 15.1548 10.7357 15.0451 11.7642C15.0158 12.162 14.7816 12.5243 14.6471 12.9048C14.491 13.3825 14.3059 13.8814 14.4 14.3763C14.8031 15.4811 15.0342 14.4157 15.2002 13.9541C15.3495 13.497 15.7685 13.1348 16.3007 12.8991C16.442 12.8338 16.5821 12.7405 16.7553 12.7366L16.7549 12.7367ZM15.8155 14.5697C15.8672 14.1416 16.0455 13.7267 16.2698 13.3332C15.3701 13.7651 15.621 14.4646 15.1568 15.0144C14.8454 15.3485 14.232 15.173 14.015 14.861C13.7836 14.5664 13.74 14.2105 13.7852 13.876C13.8415 13.4779 13.9575 13.0857 14.1033 12.7015C14.2413 12.3434 14.457 11.9995 14.479 11.6217C14.5458 10.6406 14.2316 9.52641 13.4069 8.74801C13.3591 9.17857 13.3216 9.64604 13.0146 10.0222C12.5574 10.5105 11.9072 10.213 11.7458 9.72661C11.4726 9.11579 11.6136 8.45916 11.7906 7.84421C12.0134 6.918 12.7677 6.00366 12.3475 5.04647C12.296 5.36054 12.1677 5.73689 11.7546 5.88502C11.4715 5.98537 11.1126 5.92473 10.9189 5.7387C10.3852 5.17994 10.5858 4.4452 10.3073 3.82268C10.0843 3.34714 9.60631 2.97491 9.30545 2.52968C8.96754 1.99169 8.98947 1.36026 9.12542 0.786183C8.00731 1.78885 8.83268 3.13902 8.27593 4.27829C7.98253 5.04499 6.73942 5.34587 6.5254 6.13284C6.37542 6.75553 6.70763 7.41843 6.38704 8.02184C6.191 8.43015 5.41431 8.80271 5.05578 8.2929C4.7694 7.72343 5.27638 7.37855 4.64945 6.63772C4.88606 7.14391 4.79374 7.70135 4.51503 8.18744C4.11287 8.8383 3.44582 9.32687 3.69251 10.1117C4.16046 11.411 4.90185 11.7018 3.86267 13.0997C3.43442 13.6875 2.14811 14.0243 1.79748 13.2092C1.58434 12.7278 1.90888 12.249 1.99264 11.7748C2.02663 11.4139 1.69902 11.1102 1.66613 10.7561C1.63521 10.1804 1.88673 9.61209 2.15118 9.07855C1.44795 9.53399 1.07539 10.2368 1.09359 10.9288C1.11201 11.4556 1.25761 11.9812 1.17099 12.5087C1.04315 13.3257 0.648667 14.1082 0.584856 14.9332C0.451972 16.5027 0.884175 18.0801 1.74814 19.5086C1.77446 19.5381 1.80077 19.5674 1.82708 19.5969C1.99812 19.7979 2.17596 19.9956 2.38406 20.1764C2.64829 20.3921 2.95682 20.5854 3.27675 20.7495C3.37389 20.8007 3.47542 20.8465 3.57717 20.8927C3.63747 20.9126 3.69843 20.9316 3.75939 20.9505C3.76685 20.9512 3.77386 20.9517 3.7811 20.9525C3.482 20.7057 3.22369 20.4298 3.00419 20.1406C2.78973 19.8401 2.62812 19.5189 2.49677 19.193C2.29788 18.7161 2.22947 18.2147 2.22113 17.7164C2.21719 17.2663 2.33253 16.811 2.55751 16.3936C2.60619 16.3091 2.6654 16.2066 2.79543 16.1806C2.9759 16.1463 3.09278 16.2514 3.11536 16.375C3.21689 16.7039 3.31973 16.8881 3.67475 17.1114C4.00214 17.3439 4.44223 17.3988 4.86545 17.2946C5.11981 17.2295 5.32572 17.0933 5.50421 16.9464C5.6303 16.8332 5.70332 16.6935 5.76888 16.5559C5.95264 16.1331 6.01273 15.6867 5.96821 15.2441C5.92699 14.7955 5.72766 14.3675 5.57153 13.9365C5.45268 13.6196 5.34655 13.3 5.26673 12.9763C5.19327 12.654 5.12179 12.3273 5.14722 11.9994C5.16959 11.7573 5.21038 11.5149 5.29195 11.28C5.37791 11.0669 5.53732 10.8764 5.67065 10.679C5.73314 10.5742 5.86537 10.4548 6.03465 10.5077C6.09101 10.5254 6.13684 10.562 6.1682 10.6004C6.24648 10.698 6.29648 10.8052 6.33836 10.914C6.42563 11.128 6.5333 11.3366 6.66004 11.5392C6.74776 11.6822 6.9006 11.8315 7.13062 11.8277C7.20605 11.8231 7.25123 11.7656 7.3032 11.73C7.38543 11.6601 7.45428 11.5827 7.51634 11.5021C7.78605 11.1674 7.90973 10.7744 7.91148 10.3852C7.89635 10.0115 7.78759 9.64357 7.76676 9.26952C7.73847 8.94261 7.76873 8.61339 7.82333 8.28861C7.8571 8.07638 7.93626 7.87057 8.04437 7.67334C8.11497 7.54498 8.19545 7.41975 8.27637 7.29452C8.34434 7.19977 8.40158 7.09085 8.5213 7.02659C8.57437 7.00336 8.64849 7.01127 8.69168 7.04389C8.76909 7.10486 8.74519 7.22613 8.7601 7.29748C8.79212 7.60677 8.83751 7.93121 9.066 8.19798C9.15481 8.30427 9.26094 8.32964 9.36905 8.22468C9.4936 8.11609 9.57955 7.98575 9.64336 7.85162C9.72209 7.66773 9.79467 7.48253 9.82668 7.2904C9.86243 7.06778 9.86002 6.84221 9.88984 6.6191C9.89642 6.50277 9.95058 6.31937 10.153 6.35117C10.3587 6.39418 10.4312 6.69934 10.4994 6.83545C10.6209 7.14424 10.6845 7.46325 10.7255 7.78291C10.7683 8.1062 10.8025 8.43213 10.7777 8.75724C10.7663 9.07641 10.6983 9.39146 10.6176 9.70437C10.4957 10.2195 10.3661 10.738 10.358 11.2627C10.3646 11.6051 10.3878 11.9719 10.661 12.2609C10.7271 12.3326 10.7999 12.4059 10.9159 12.4322C11.2134 12.5179 11.4064 12.3105 11.5651 12.1553C11.6588 12.0623 11.7568 11.9712 11.8693 11.8906C12.018 11.7789 12.1993 11.6973 12.3793 11.6176C12.4956 11.5624 12.6955 11.4788 12.7765 11.6092C12.8142 11.6675 12.7925 11.7351 12.7793 11.7962C12.7409 11.9532 12.6958 12.1089 12.6587 12.2663C12.6201 12.4288 12.5958 12.5927 12.5763 12.7572C12.5263 13.2373 12.6567 13.714 12.6863 14.1929C12.7205 14.6482 12.7276 15.1071 12.6616 15.561C12.5892 15.9525 12.4925 16.3411 12.4473 16.7354C12.7572 16.6238 13.0041 16.4363 13.2646 16.2719C13.3483 16.218 13.4216 16.1557 13.506 16.1026C13.8161 15.9634 13.895 16.335 13.9128 16.4935C13.9744 17.0145 13.9073 17.5518 13.6608 18.0432C13.4021 18.5003 13.0242 18.9144 12.7767 19.3757C12.9598 19.3822 13.1617 19.3614 13.3229 19.4405C13.5661 19.5677 13.6031 19.8139 13.5981 20.0199C13.6018 20.2492 13.5453 20.4667 13.4402 20.6725C13.5545 20.5793 13.6676 20.484 13.7803 20.3883C14.8248 19.4998 15.3495 18.3233 16.4832 17.4867C16.2003 17.5271 15.9251 17.5922 15.6611 17.6779C15.5482 17.7095 15.4357 17.7591 15.3113 17.7478C14.9506 17.6767 15.1712 17.3314 15.2217 17.1463C15.3611 16.7983 15.5063 16.451 15.6026 16.0946C15.7429 15.5926 15.7668 15.0797 15.8146 14.5697H15.8155ZM13.1473 17.962C13.4755 17.4601 13.5946 16.902 13.5542 16.3485C13.2681 16.5647 12.7023 17.0987 12.2668 17.0504C12.1144 17.028 12.0118 16.9156 11.9971 16.8041C11.9667 16.4412 12.0484 16.0769 12.107 15.7174C12.1921 15.2558 12.2013 14.7882 12.2065 14.3227C12.2169 13.8594 12.1392 13.3939 12.2004 12.9322C12.2647 12.5341 12.3826 12.1434 12.5135 11.7552C12.3197 11.8537 12.1408 11.9719 12.0105 12.119C11.859 12.2923 11.7509 12.4899 11.5516 12.6369C11.2612 12.8531 10.7628 12.8565 10.4538 12.6606C9.68415 12.1223 9.79774 11.1954 9.92098 10.4788C10.0043 10.0415 10.1471 9.61308 10.2791 9.18285C10.4269 8.64947 10.4608 8.10307 10.4212 7.55981C10.4043 7.37773 10.3747 7.19516 10.3001 7.02082C10.3084 7.50477 10.0797 8.33574 9.47496 8.589C8.64235 8.80733 8.48556 7.90946 8.49082 7.47593C8.37724 7.67746 8.26825 7.88079 8.20642 8.09549C8.12769 8.44119 8.10533 8.7948 8.1312 9.14495C8.17133 9.54684 8.3222 9.93736 8.36079 10.3388C8.39105 10.755 8.28645 11.1818 8.0345 11.5543C7.8753 11.7799 7.69615 12.0244 7.39288 12.1551C7.02142 12.2836 6.5708 12.1249 6.36643 11.8753C6.10987 11.553 6.00659 11.177 5.89168 10.8158C5.7463 10.9954 5.60618 11.1827 5.54324 11.3892C5.46123 11.7481 5.43229 12.1376 5.54259 12.4924C5.74827 13.2952 6.18859 14.0477 6.44734 14.8393C6.63724 15.5707 6.57847 16.4236 6.07961 17.0809C5.62964 17.5742 4.87093 17.8427 4.08787 17.6608C3.7697 17.5878 3.52147 17.4134 3.3057 17.2304C3.1522 17.105 3.00901 16.9685 2.91318 16.813C2.56058 17.8512 2.83973 19.0429 3.45591 19.9971C3.61554 20.2133 3.78395 20.4259 3.97823 20.6257C4.08261 20.7475 4.51043 21.0785 4.65976 21.3313C4.9047 21.4892 5.11433 21.678 5.36957 21.8275C5.53974 21.9098 5.72284 21.9809 5.91427 22.0357C5.98268 22.0494 6.05132 22.0616 6.12039 22.0731C6.1796 22.0809 6.23924 22.0885 6.29889 22.0965C6.36116 22.1046 6.42541 22.1079 6.48813 22.1135C6.57167 22.1176 6.655 22.1214 6.73877 22.1216C6.77144 22.1216 6.80433 22.1222 6.837 22.1216C6.32454 22.0048 5.79432 21.3989 5.52285 21.1155C5.12858 20.6908 4.80975 20.2352 4.75317 19.7162C4.72796 19.5395 4.73344 19.3612 4.75953 19.1848C4.76809 19.1278 4.78146 19.0681 4.81918 19.0177C4.87816 18.929 5.02662 18.878 5.15051 18.9198C5.2937 18.9664 5.36321 19.0796 5.44895 19.1706C5.56671 19.3042 5.70661 19.4278 5.8748 19.527C6.11776 19.6592 6.40151 19.7958 6.71048 19.7963C6.83284 19.7771 6.96397 19.699 6.97077 19.6002C6.94511 19.4677 6.82626 19.356 6.77188 19.2296C6.73811 19.1676 6.71289 19.1034 6.68877 19.0388C6.56904 18.6387 6.60742 18.1875 6.90323 17.8343C7.12295 17.5716 7.47862 17.4007 7.79066 17.2068C7.90732 17.0857 7.93144 16.9295 7.97836 16.7873C8.08778 16.377 8.25422 15.9644 8.29172 15.5487C8.34434 15.0588 8.23668 14.5705 8.2358 14.0808C8.23185 13.7351 8.31364 13.3942 8.42307 13.0595C8.45859 12.9473 8.49192 12.8345 8.53051 12.7224C8.5702 12.5957 8.63401 12.3948 8.86097 12.4332C9.04363 12.4749 9.02302 12.638 9.03837 12.7529C9.04582 12.8125 9.05701 12.8709 9.0717 12.9295C9.15086 13.1839 9.2616 13.4263 9.39119 13.6669C9.64841 14.136 9.98698 14.5918 10.0806 15.1008C10.1574 15.5262 9.94904 15.9548 10.0751 16.378C10.0876 16.4103 10.0942 16.4473 10.1278 16.4714C10.24 16.409 10.3104 16.3116 10.3944 16.2292C10.5071 16.1082 10.6293 15.9909 10.7073 15.8545C10.7457 15.7795 10.8481 15.7124 10.9577 15.7546C11.0676 15.7929 11.0772 15.8962 11.0939 15.9756C11.1494 16.3287 11.2961 16.6718 11.2983 17.0292C11.3035 17.3197 11.2101 17.6036 11.1441 17.8881C11.0799 18.1607 11.0242 18.4342 10.97 18.7084C11.4033 18.5802 11.4961 18.8135 11.5553 19.0805C11.6138 19.2988 11.6432 19.5211 11.6553 19.7435C11.6684 20.4102 11.6327 21.1174 11.1935 21.7138C11.1685 21.7503 11.1404 21.7853 11.1106 21.8194C11.6577 21.7451 12.125 21.5567 12.5499 21.3071C12.6517 21.1499 12.7609 20.9958 12.8664 20.8401C13.0275 20.5737 13.2179 20.312 13.303 20.0243C13.3551 19.8564 13.3567 19.5395 13.017 19.6045C12.8536 19.6272 12.6795 19.6967 12.5151 19.6452C12.1743 19.5361 12.2936 19.2314 12.4072 19.033C12.603 18.6568 12.8997 18.3182 13.1473 17.9613V17.962ZM11.368 20.0058C11.4377 19.6521 11.5404 19.2774 11.3783 18.9313C11.291 18.7012 11.0823 18.9056 10.9299 18.973C10.8632 19.0066 10.7694 19.0075 10.7067 18.9678C10.5683 18.8737 10.6435 18.7155 10.6584 18.595C10.7415 18.0992 10.8814 17.6084 10.9437 17.1107C10.9775 16.755 10.8784 16.4048 10.8045 16.0553C10.6788 16.1745 10.5727 16.3048 10.4521 16.4267C10.3558 16.5226 10.231 16.6752 10.044 16.6263C9.7052 16.5205 9.70542 15.8698 9.68876 15.6256C9.68064 15.3636 9.65192 15.1026 9.58219 14.846C9.48483 14.502 9.34646 14.165 9.20042 13.8312C9.07762 13.5652 8.91996 13.309 8.80483 13.0411C8.64279 13.4003 8.47635 13.7636 8.44477 14.1449C8.4132 14.4893 8.4314 14.8342 8.43688 15.1787C8.43491 15.5272 8.39193 15.8746 8.3086 16.2171C8.25904 16.4485 8.21804 16.6807 8.17045 16.9123C8.13778 17.0524 8.11191 17.2014 8.0038 17.3218C7.88473 17.4385 7.69417 17.5105 7.57313 17.6253C7.22864 17.8903 7.06199 18.2376 7.07997 18.6064C7.08019 18.7516 7.09992 18.8967 7.15145 19.0371C7.19948 19.178 7.28521 19.3115 7.30977 19.457C7.35999 19.6628 7.16483 19.8529 6.92428 19.9345C6.72824 20.0085 6.50326 19.9745 6.30349 19.9266C5.85046 19.8195 5.4529 19.6031 5.14985 19.3306C5.01872 19.9704 5.28427 20.5732 5.77897 21.0914C6.09123 21.4195 6.40699 21.7723 6.87647 21.9832C6.94072 22.0145 7.03348 22.0128 7.08216 22.0586C7.09378 22.0728 7.09598 22.0908 7.09049 22.1064C7.12646 22.1031 7.16198 22.1 7.19794 22.0964C7.45165 22.0464 7.69461 21.9725 7.93407 21.8922C8.14151 21.8065 8.34434 21.6973 8.56867 21.6493C8.57612 21.6474 8.5838 21.6457 8.59169 21.6446C8.6998 21.624 8.81273 21.6179 8.93311 21.6357C9.43154 21.6675 9.90256 21.8123 10.3981 21.8507C10.5012 21.8553 10.6014 21.856 10.6994 21.853C10.89 21.5963 10.9906 21.3076 11.0939 21.0258C11.2073 20.6892 11.2965 20.3481 11.3682 20.0054L11.368 20.0058Z" fill="#D93429"/>
<path d="M16.2698 13.3329C16.0454 13.7265 15.8674 14.1414 15.8154 14.5693C15.7676 15.0793 15.7437 15.5923 15.6034 16.0942C15.5069 16.4506 15.3617 16.7979 15.2225 17.1459C15.172 17.331 14.9514 17.6764 15.3122 17.7474C15.4367 17.7589 15.549 17.7093 15.6619 17.6775C15.9259 17.592 16.2011 17.5267 16.484 17.4864C15.3503 18.3228 14.8256 19.4993 13.7811 20.3879C13.6684 20.4837 13.5553 20.5789 13.441 20.6722C13.5461 20.4663 13.6026 20.2488 13.5989 20.0195C13.604 19.8135 13.5671 19.5673 13.3237 19.4401C13.1625 19.361 12.9604 19.3818 12.7775 19.3754C13.0251 18.914 13.4029 18.4997 13.6616 18.0428C13.9081 17.5515 13.9752 17.0141 13.9136 16.4931C13.8958 16.3347 13.8169 15.963 13.5068 16.1022C13.4224 16.1553 13.3491 16.2174 13.2654 16.2715C13.0047 16.4359 12.7577 16.6234 12.4481 16.735C12.4933 16.3407 12.59 15.9521 12.6624 15.5606C12.7284 15.1067 12.7213 14.6478 12.6871 14.1925C12.6573 13.7136 12.5271 13.2368 12.5771 12.7568C12.5966 12.5925 12.6209 12.4286 12.6595 12.2659C12.6968 12.1087 12.742 11.9529 12.7801 11.7958C12.7933 11.7349 12.815 11.6671 12.7773 11.6088C12.6963 11.4785 12.4964 11.562 12.3801 11.6172C12.2001 11.6971 12.019 11.7787 11.8701 11.8902C11.7576 11.9708 11.6596 12.0619 11.566 12.1549C11.4072 12.3099 11.2142 12.5175 10.9167 12.4319C10.8007 12.4055 10.7279 12.332 10.6619 12.2605C10.3889 11.9715 10.3654 11.6047 10.3588 11.2623C10.3669 10.7376 10.4963 10.2192 10.6184 9.70398C10.6991 9.39107 10.7671 9.07602 10.7785 8.75685C10.8033 8.43175 10.7691 8.10598 10.7263 7.78253C10.6853 7.4627 10.6217 7.14369 10.5002 6.83506C10.432 6.69896 10.3595 6.39363 10.1538 6.35079C9.95138 6.31898 9.89722 6.50238 9.89064 6.61871C9.86082 6.84182 9.86323 7.0674 9.82749 7.29001C9.79548 7.48214 9.72289 7.66735 9.64417 7.85124C9.58036 7.98537 9.49418 8.11571 9.36985 8.22429C9.26174 8.32926 9.15539 8.30388 9.0668 8.1976C8.83831 7.93083 8.7927 7.60638 8.76091 7.2971C8.74599 7.22575 8.7699 7.10431 8.69249 7.04351C8.64929 7.01088 8.57496 7.00297 8.52211 7.0262C8.4026 7.09047 8.34515 7.19938 8.27717 7.29413C8.19604 7.4192 8.11556 7.54459 8.04517 7.67295C7.93685 7.87019 7.85769 8.07599 7.82414 8.28823C7.76954 8.61283 7.73949 8.94222 7.76756 9.26914C7.78839 9.64302 7.89716 10.0111 7.91229 10.3848C7.91053 10.7742 7.78686 11.167 7.51714 11.5017C7.45509 11.5823 7.38623 11.6597 7.304 11.7296C7.25203 11.7652 7.20686 11.8225 7.13143 11.8273C6.9014 11.8309 6.74856 11.6818 6.66085 11.5388C6.53389 11.3363 6.42644 11.1278 6.33916 10.9136C6.29728 10.8049 6.24728 10.6974 6.169 10.6C6.13764 10.5616 6.09181 10.5251 6.03546 10.5073C5.86617 10.4544 5.73395 10.5738 5.67145 10.6786C5.53791 10.876 5.37871 11.0665 5.29275 11.2796C5.21118 11.5145 5.17061 11.7569 5.14803 11.999C5.12259 12.3269 5.19408 12.6535 5.26754 12.9759C5.34735 13.2996 5.45371 13.6192 5.57234 13.9361C5.72847 14.3672 5.92801 14.7951 5.96902 15.2438C6.01353 15.6865 5.95345 16.1329 5.76969 16.5555C5.70412 16.693 5.6311 16.8327 5.50502 16.9461C5.32652 17.093 5.12062 17.2292 4.86625 17.2942C4.44304 17.3984 4.00294 17.3437 3.67555 17.111C3.32054 16.8877 3.21769 16.7035 3.11617 16.3746C3.09358 16.251 2.9767 16.1459 2.79624 16.1802C2.6662 16.2062 2.607 16.3087 2.55832 16.3932C2.33333 16.8106 2.21799 17.2659 2.22194 17.7161C2.23027 18.2143 2.29869 18.7156 2.49757 19.1926C2.62892 19.5186 2.79053 19.8397 3.00499 20.1403C3.22449 20.4294 3.48281 20.7053 3.78191 20.9521C3.77467 20.9513 3.76743 20.9506 3.7602 20.9501C3.69902 20.9312 3.63828 20.9122 3.57797 20.8923C3.47623 20.8462 3.3747 20.8003 3.27756 20.7491C2.95741 20.585 2.64888 20.3919 2.38486 20.176C2.17677 19.9954 1.99893 19.7975 1.82789 19.5965C1.80158 19.5672 1.77526 19.5377 1.74895 19.5082C0.8852 18.0797 0.452777 16.5023 0.585661 14.9328C0.649472 14.1078 1.04396 13.3253 1.1718 12.5083C1.2582 11.981 1.11281 11.4552 1.09439 10.9284C1.07619 10.2364 1.44853 9.5336 2.15199 9.07816C1.88753 9.61171 1.63602 10.18 1.66694 10.7558C1.69983 11.1099 2.02744 11.4135 1.99345 11.7744C1.90946 12.2485 1.58515 12.7275 1.79829 13.2088C2.14892 14.0239 3.43522 13.687 3.86348 13.0994C4.90265 11.7014 4.16126 11.4106 3.69332 10.1113C3.44662 9.32648 4.11368 8.83775 4.51584 8.18705C4.79455 7.70113 4.88686 7.14353 4.65026 6.63733C5.27718 7.37817 4.77021 7.72304 5.05659 8.29251C5.41511 8.80233 6.19181 8.42977 6.38784 8.02145C6.70843 7.41804 6.37622 6.75498 6.52621 6.13246C6.74023 5.34549 7.98333 5.04477 8.27673 4.2779C8.83371 3.13864 8.00833 1.7883 9.12623 0.785797C8.99049 1.35988 8.96835 1.99147 9.30626 2.52929C9.60711 2.97469 10.0851 3.34675 10.3082 3.82229C10.5866 4.44482 10.386 5.17956 10.9197 5.73831C11.1134 5.92435 11.4721 5.98498 11.7554 5.88463C12.1685 5.7365 12.2968 5.36032 12.3483 5.04609C12.7685 6.00344 12.0142 6.91778 11.7914 7.84382C11.6144 8.45893 11.4734 9.1154 11.7466 9.72623C11.908 10.2126 12.5582 10.5102 13.0154 10.0218C13.3224 9.64565 13.3599 9.17818 13.4077 8.74762C14.2326 9.52586 14.5466 10.6401 14.4798 11.6213C14.4576 11.9992 14.2421 12.343 14.1041 12.7011C13.9583 13.0854 13.8423 13.4775 13.786 13.8756C13.7408 14.2101 13.7844 14.566 14.0158 14.8607C14.2329 15.1724 14.8462 15.3481 15.1576 15.0141C15.6218 14.4642 15.3709 13.7647 16.2706 13.3329H16.2698ZM4.595 15.3634C4.62548 14.9913 4.31805 14.6614 3.92466 14.4573C3.78936 14.3622 3.5828 14.2775 3.42272 14.3919C3.24467 14.5372 3.28721 14.7611 3.31813 14.9414C3.40408 15.325 3.77313 16.0177 4.35467 16.0726C4.35949 16.0744 4.36454 16.0752 4.36958 16.0752C4.37835 16.0752 4.38712 16.0724 4.3948 16.0678C4.48646 16.0489 4.53865 15.9648 4.49676 15.9001C4.56956 15.7267 4.5904 15.5443 4.595 15.3634Z" fill="#EA5548"/>
<path d="M13.5542 16.3482C13.5946 16.9016 13.4757 17.4598 13.1472 17.9617C12.8997 18.3186 12.603 18.6572 12.4072 19.0334C12.2938 19.2318 12.1743 19.5365 12.515 19.6456C12.6795 19.697 12.8536 19.6274 13.017 19.6049C13.3564 19.5398 13.3551 19.8568 13.3029 20.0247C13.2178 20.3124 13.0275 20.5741 12.8663 20.8405C12.7611 20.9962 12.6519 21.1503 12.5499 21.3075C12.1249 21.5571 11.6576 21.7455 11.1105 21.8198C11.1404 21.7855 11.1684 21.7506 11.1934 21.7142C11.6329 21.1179 11.6686 20.4106 11.6552 19.7439C11.6434 19.5215 11.6138 19.299 11.5552 19.0809C11.496 18.8141 11.4033 18.5806 10.97 18.7088C11.0241 18.4346 11.0798 18.1611 11.1441 17.8886C11.2101 17.604 11.3035 17.3201 11.2982 17.0296C11.2961 16.672 11.1496 16.329 11.0939 15.976C11.0772 15.8966 11.0673 15.7933 10.9577 15.755C10.8481 15.7129 10.7457 15.7799 10.7073 15.8549C10.629 15.9913 10.5069 16.1087 10.3944 16.2296C10.3104 16.312 10.2398 16.4092 10.1277 16.4718C10.094 16.4478 10.0876 16.4107 10.0751 16.3784C9.94901 15.9552 10.1573 15.5267 10.0806 15.1012C9.98695 14.5922 9.64838 14.1364 9.39116 13.6673C9.26134 13.4268 9.15083 13.1844 9.07167 12.93C9.05697 12.8711 9.04579 12.813 9.03833 12.7533C9.02298 12.6385 9.0436 12.4755 8.86094 12.4336C8.63398 12.3953 8.57017 12.5961 8.53048 12.7228C8.49211 12.8347 8.45877 12.9477 8.42303 13.06C8.31383 13.3946 8.23182 13.7355 8.23577 14.0812C8.23664 14.571 8.34453 15.0592 8.29168 15.5491C8.25419 15.9648 8.08775 16.3774 7.97833 16.7877C7.9314 16.9297 7.90728 17.0861 7.79062 17.2072C7.47859 17.4012 7.12291 17.572 6.90319 17.8347C6.60738 18.188 6.56901 18.6391 6.68874 19.0392C6.71308 19.1038 6.73807 19.1681 6.77184 19.23C6.82601 19.3564 6.94508 19.4683 6.97073 19.6006C6.96393 19.6995 6.83258 19.7776 6.71044 19.7967C6.40148 19.7962 6.11751 19.6596 5.87476 19.5274C5.70658 19.4281 5.56667 19.3047 5.44892 19.171C5.36296 19.0802 5.29367 18.9669 5.15048 18.9202C5.02658 18.8784 4.87835 18.9295 4.81914 19.0181C4.78143 19.0685 4.76805 19.1282 4.7595 19.1852C4.73362 19.3617 4.72814 19.54 4.75314 19.7166C4.80993 20.2356 5.12855 20.6912 5.52282 21.1159C5.79429 21.3991 6.32451 22.0052 6.83697 22.122C6.8043 22.1227 6.77162 22.122 6.73873 22.122C6.65497 22.122 6.57164 22.118 6.48809 22.1139C6.42516 22.1083 6.36113 22.1052 6.29885 22.097C6.23921 22.0889 6.17956 22.0813 6.12036 22.0736C6.05129 22.0619 5.98243 22.0498 5.91423 22.0361C5.7228 21.9813 5.53948 21.9103 5.36954 21.8279C5.1143 21.6784 4.90466 21.4896 4.65973 21.3317C4.51062 21.079 4.0828 20.7479 3.9782 20.6262C3.78392 20.4263 3.61551 20.2139 3.45587 19.9975C2.83969 19.0433 2.56055 17.8515 2.91315 16.8134C3.00898 16.9689 3.15195 17.1055 3.30567 17.2308C3.52144 17.4138 3.76966 17.5882 4.08784 17.6612C4.87111 17.8431 5.62961 17.5745 6.07957 17.0813C6.57844 16.424 6.6372 15.5712 6.44731 14.8397C6.18856 14.0483 5.74824 13.2956 5.54255 12.4928C5.43225 12.138 5.4612 11.7485 5.54321 11.3896C5.60614 11.1832 5.74627 10.9958 5.89165 10.8162C6.00655 11.1774 6.11005 11.5534 6.36639 11.8757C6.57076 12.1253 7.02139 12.284 7.39285 12.1555C7.69611 12.0248 7.87527 11.7803 8.03447 11.5547C8.28642 11.1822 8.39102 10.7554 8.36076 10.3392C8.32216 9.93778 8.17152 9.54726 8.13117 9.14537C8.10529 8.79522 8.12766 8.44161 8.20638 8.09591C8.26822 7.88121 8.3772 7.67787 8.49079 7.47635C8.48553 7.90988 8.64231 8.80775 9.47492 8.58942C10.0797 8.33616 10.3084 7.50519 10.3001 7.02124C10.3746 7.19557 10.4042 7.37815 10.4211 7.56022C10.4608 8.10349 10.4268 8.64989 10.279 9.18327C10.147 9.6135 10.0043 10.0419 9.92094 10.4792C9.79792 11.1957 9.68412 12.1227 10.4538 12.661C10.7625 12.857 11.2612 12.8535 11.5515 12.6373C11.7508 12.4903 11.8589 12.2928 12.0105 12.1194C12.1409 11.9723 12.3197 11.8543 12.5135 11.7556C12.3824 12.1436 12.2646 12.5345 12.2004 12.9326C12.1392 13.3943 12.2168 13.8599 12.2065 14.3231C12.2012 14.7886 12.192 15.2561 12.107 15.7178C12.0484 16.0773 11.9666 16.4417 11.9971 16.8045C12.0118 16.9161 12.1144 17.0283 12.2668 17.0508C12.7023 17.0991 13.2678 16.5651 13.5542 16.3489V16.3482Z" fill="#F28E3E"/>
<path d="M4.38736 15.305C4.42661 15.4814 4.44744 15.6585 4.41477 15.8369C4.15865 15.7521 3.91547 15.6191 3.78478 15.4278C3.6418 15.2032 3.58852 14.9384 3.6611 14.6942C3.96371 14.8443 4.31346 15.0185 4.38736 15.305Z" fill="#F28E3E"/>
<path d="M11.3785 18.9311C11.5406 19.277 11.438 19.6518 11.3682 20.0056C11.2965 20.3484 11.2073 20.6894 11.0939 21.0261C10.9904 21.3077 10.89 21.5965 10.6994 21.8533C10.6016 21.8561 10.5012 21.8554 10.3981 21.8509C9.90254 21.8126 9.43175 21.6677 8.9331 21.6359C8.81272 21.618 8.69979 21.6242 8.59168 21.6448C8.58379 21.646 8.57611 21.6476 8.56866 21.6496C8.34433 21.6975 8.1415 21.8068 7.93406 21.8925C7.6946 21.9729 7.45164 22.0469 7.19793 22.0966C7.16197 22.1003 7.12644 22.1034 7.09048 22.1067C7.09596 22.091 7.09377 22.0731 7.08215 22.0589C7.03347 22.0131 6.94049 22.0147 6.87646 21.9834C6.40698 21.7725 6.09144 21.4197 5.77896 21.0917C5.28426 20.5734 5.01849 19.9705 5.14984 19.3309C5.45289 19.6034 5.85045 19.8198 6.30348 19.9269C6.50325 19.9748 6.72823 20.0088 6.92427 19.9348C7.16482 19.853 7.35998 19.6629 7.30976 19.4572C7.2852 19.3117 7.19946 19.1784 7.15144 19.0374C7.09991 18.897 7.08018 18.7518 7.07996 18.6067C7.06197 18.2379 7.22863 17.8906 7.57312 17.6256C7.69416 17.5107 7.88472 17.4387 8.00379 17.3221C8.11189 17.2016 8.13777 17.0527 8.17044 16.9126C8.21803 16.6811 8.25903 16.4488 8.30859 16.2174C8.3917 15.8747 8.4349 15.5273 8.43687 15.179C8.43139 14.8344 8.41319 14.4894 8.44476 14.1452C8.47634 13.7639 8.64277 13.4004 8.80482 13.0414C8.91995 13.3094 9.07761 13.5655 9.20041 13.8315C9.34645 14.1653 9.48481 14.5021 9.58218 14.8463C9.65191 15.1029 9.68063 15.364 9.68875 15.6259C9.70541 15.8701 9.70519 16.5208 10.044 16.6266C10.231 16.6755 10.3556 16.5227 10.4521 16.427C10.5727 16.3051 10.6788 16.1747 10.8044 16.0556C10.8783 16.4049 10.9775 16.7552 10.9437 17.111C10.8814 17.6086 10.7415 18.0995 10.6584 18.5953C10.6433 18.7159 10.5683 18.8739 10.7066 18.968C10.7696 19.0076 10.8632 19.0069 10.9299 18.9733C11.0825 18.9059 11.291 18.7016 11.3783 18.9316L11.3785 18.9311Z" fill="#FFD979"/>
<path d="M7.23367 7.32838C7.13829 7.30877 7.08719 7.23512 7.11022 7.16476C7.14618 7.05139 7.17995 6.9377 7.21153 6.82367C7.33213 6.21219 7.6229 5.94212 8.09326 5.46361C8.61909 4.93006 9.00218 4.30704 9.12892 3.64695C9.15874 3.45581 9.17475 3.2645 9.17782 3.07237C9.17782 3.02723 9.27102 3.02723 9.27102 3.07237C9.26992 3.31509 9.28417 3.55813 9.25216 3.80003C9.17738 4.29534 9.03244 4.79363 8.75264 5.24792C8.48467 5.69116 8.10203 6.08646 7.81126 6.52032C7.72026 6.66549 7.63562 6.81197 7.56282 6.96258C7.52225 7.05271 7.48475 7.14334 7.45142 7.23512C7.4262 7.30531 7.32489 7.34733 7.23389 7.32805L7.23367 7.32838Z" fill="#EE7444"/>
<path d="M6.51786 9.26303C6.52641 9.0185 6.5547 8.77562 6.63934 8.53867C6.67113 8.45678 6.67991 8.36516 6.74459 8.29348C6.81696 8.22708 6.9437 8.27635 6.93405 8.35824C6.92155 8.64594 6.93076 8.93381 6.88976 9.22035C6.89875 9.30785 6.83231 9.40358 6.70183 9.40144C6.60491 9.40144 6.51281 9.33849 6.51764 9.26303H6.51786Z" fill="#EE7444"/>
<path d="M4.34611 10.4857C4.30445 10.2715 4.25752 10.0561 4.25972 9.83893C4.27594 9.6178 4.33756 9.39964 4.35291 9.17851C4.30599 9.13122 4.38471 9.06646 4.45203 9.09711C4.4836 9.10996 4.49632 9.13814 4.50553 9.16236C4.53492 9.25266 4.53601 9.34707 4.54939 9.43918C4.56145 9.54431 4.5768 9.64927 4.59675 9.75374C4.64061 9.98459 4.69039 10.2149 4.73885 10.4451C4.76735 10.6389 4.39129 10.6798 4.34611 10.4857Z" fill="#EE7444"/>
<path d="M1.44177 16.7683C1.29266 16.2706 1.18368 15.762 1.20319 15.2505C1.20648 14.9315 1.2488 14.6135 1.24485 14.2946C1.21591 14.219 1.34704 14.1587 1.42203 14.217C1.45098 14.2394 1.45339 14.2618 1.45339 14.2861C1.47225 14.4683 1.48277 14.6512 1.49747 14.8338C1.53299 15.3418 1.63342 15.8452 1.75468 16.3451C1.781 16.459 1.80928 16.5723 1.84547 16.6844C1.9084 16.8854 1.5229 16.9665 1.44199 16.7681L1.44177 16.7683Z" fill="#EE7444"/>
<path d="M13.402 12.5447C13.2937 12.535 13.2156 12.4551 13.2303 12.3747C13.2531 12.1845 13.2693 11.9942 13.2924 11.8041C13.341 11.3969 13.4726 10.9698 13.3092 10.5692C13.2084 10.5249 13.2965 10.4109 13.3987 10.4547C13.4511 10.473 13.4787 10.5183 13.5029 10.5552C13.5493 10.6318 13.5776 10.7141 13.6022 10.7961C13.7127 11.2362 13.7204 11.6887 13.6623 12.1338C13.6515 12.2277 13.6404 12.3218 13.6285 12.4159C13.6182 12.4976 13.5072 12.5556 13.4024 12.5449L13.402 12.5447Z" fill="#EE7444"/>
<path d="M14.5232 17.126C14.3784 17.0962 14.3712 16.9792 14.414 16.8894C14.4876 16.5853 14.5376 16.2784 14.6148 15.975C14.5955 15.758 15.0462 15.8465 14.8872 16.0286C14.8495 16.2248 14.9343 17.2113 14.5232 17.126Z" fill="#EE7444"/>
<path d="M11.2892 14.8831C11.0379 14.581 11.2195 14.1763 11.2169 13.8418C11.257 13.7217 11.1471 13.3503 11.4366 13.4381C11.6002 13.6197 11.5352 13.875 11.5837 14.085C11.5719 14.2867 11.8258 15.0587 11.2892 14.8829V14.8831Z" fill="#F9B765"/>
<path d="M9.00682 10.4736C8.92437 10.4652 8.86582 10.4064 8.87635 10.3446C8.89542 10.2355 8.91275 10.1265 8.92371 10.0169C8.92042 9.64087 9.15725 9.30374 9.29232 8.95045C9.25176 8.83445 9.49033 8.82028 9.47608 8.93942C9.48463 9.16302 9.41293 9.38118 9.37894 9.60231C9.35328 9.78373 9.28794 9.95889 9.2318 10.1359C9.21141 10.2154 9.19408 10.2957 9.17852 10.3759C9.16689 10.4379 9.08817 10.4825 9.00682 10.4738V10.4736Z" fill="#F9B765"/>
<path d="M7.12339 14.7024C7.04861 14.3475 6.87691 14.0084 6.74052 13.6653C6.63965 13.406 6.54536 13.1423 6.37103 12.9041C6.3638 12.8912 6.36752 12.8734 6.38529 12.8624C6.46203 12.8179 6.57979 12.9659 6.63088 13.0011C6.76684 13.1224 6.87055 13.2611 6.97252 13.3991C7.10562 13.576 7.24421 13.7561 7.30122 13.9568C7.36745 14.1928 7.3624 14.435 7.41086 14.6728C7.43126 14.8145 7.1554 14.8448 7.12339 14.7024Z" fill="#F9B765"/>
<path d="M7.0762 16.4412C6.79442 16.3845 6.98608 16.1037 7.00691 15.9556C7.02796 15.875 6.96919 15.7565 7.12707 15.7391C7.23079 15.7285 7.31763 15.8099 7.27531 15.8842C7.25338 16.0536 7.41828 16.4293 7.0762 16.4412Z" fill="#F9B765"/>
<path d="M3.84574 19.0918C3.6497 18.9323 3.52361 18.7596 3.4848 18.5503C3.46287 18.3699 3.42055 18.1863 3.44029 18.0054C3.50607 17.9174 3.55892 18.1211 3.57493 18.1524C3.66768 18.3986 3.78631 18.6446 4.02072 18.8359C4.11896 18.9072 4.21654 18.997 4.1001 19.0916C4.03322 19.142 3.91152 19.146 3.84574 19.0916V19.0918Z" fill="#F9B765"/>
<path d="M9.35437 20.4481C9.25196 20.4268 9.19012 20.3447 9.21841 20.2681C9.24538 20.194 9.26841 20.1195 9.28902 20.0445C9.38134 19.6197 9.52255 19.1974 9.50172 18.7639C9.49536 18.5161 9.48528 18.2669 9.43923 18.0214C9.4219 17.9266 9.61619 17.9049 9.63439 18.0015C9.67276 18.2402 9.73197 18.477 9.76968 18.7159C9.84073 19.1071 9.84512 19.5087 9.73482 19.8957C9.69469 20.0468 9.64974 20.1976 9.59382 20.3459C9.56531 20.4232 9.4548 20.4695 9.35437 20.4482V20.4481Z" fill="white"/>
<path d="M8.40246 20.8078C8.27944 20.4871 8.28668 20.1531 8.35487 19.828C8.32198 19.7517 8.39281 19.6685 8.50157 19.6682C8.77853 19.6654 8.57459 20.1205 8.64191 20.2767C8.6042 20.4609 8.90286 20.8064 8.61911 20.9C8.52942 20.9187 8.42504 20.8778 8.40246 20.8078Z" fill="white"/>
</g>
<defs>
<clipPath id="clip0_40_133">
<rect width="17" height="22.456" fill="white"/>
</clipPath>
</defs>
</svg>
