<svg width="15" height="21" viewBox="0 0 15 21" fill="none" xmlns="http://www.w3.org/2000/svg">
<g clip-path="url(#clip0_40_154)">
<path d="M1.61309 2.28607C1.80827 6.67337 4.18716 8.65557 6.56575 10.1281L6.45249 10.751C4.02993 12.0929 1.58177 15.1118 1.6384 19.0952L13.3831 18.9464C13.3051 15.9049 10.5488 12.0691 8.54765 10.8077L8.49102 10.1281C11.6627 8.25919 13.0217 5.71073 13.3639 2.29692L1.61279 2.28607H1.61309Z" fill="#F5ECDA"/>
<path d="M1.63834 19.1949C1.58382 19.1949 1.53924 19.1512 1.53864 19.0964C1.4793 14.9199 4.09042 11.9634 6.36268 10.6866L6.45545 10.1769C3.99494 8.64472 1.70581 6.61945 1.51304 2.29028C1.51183 2.26317 1.52177 2.23637 1.54075 2.21679C1.55942 2.19721 1.58563 2.18607 1.61304 2.18607L13.3641 2.19691C13.3924 2.19691 13.4192 2.20896 13.4382 2.22974C13.4572 2.25052 13.4662 2.27853 13.4635 2.30655C13.0969 5.96494 11.5951 8.39653 8.59609 10.1821L8.64337 10.7501C9.66957 11.4113 10.8355 12.6799 11.771 14.1558C12.8391 15.8404 13.4469 17.5407 13.4831 18.9437C13.4837 18.9705 13.4737 18.9961 13.4551 19.0154C13.4367 19.0347 13.4111 19.0458 13.3843 19.0461L1.63954 19.1949H1.63834ZM1.71785 2.38576C1.94014 6.58421 4.20276 8.54774 6.6181 10.0429C6.65304 10.0646 6.67111 10.1052 6.66388 10.1456L6.55063 10.7685C6.54521 10.798 6.52713 10.8233 6.50093 10.8381C4.28529 12.0655 1.72177 14.9332 1.73743 18.994L13.2798 18.8476C13.2186 17.4997 12.6256 15.8766 11.6024 14.2627C10.6828 12.8121 9.49186 11.5206 8.49458 10.892C8.46808 10.8754 8.45091 10.8471 8.4482 10.8158L8.39157 10.1363C8.38826 10.098 8.40723 10.0613 8.44036 10.042C11.3846 8.30708 12.8722 5.94566 13.2533 2.3963L1.71785 2.38576Z" fill="black"/>
<path d="M13.1212 2.29661H1.87914C1.33969 2.29661 0.902344 1.85926 0.902344 1.31981C0.902344 0.780362 1.33969 0.343018 1.87914 0.343018H13.1212C13.6606 0.343018 14.098 0.780362 14.098 1.31981C14.098 1.85926 13.6606 2.29661 13.1212 2.29661Z" fill="#DFB57F"/>
<path d="M13.1211 2.3966H1.87904C1.28537 2.3966 0.802246 1.91347 0.802246 1.31981C0.802246 0.726138 1.28537 0.243011 1.87904 0.243011H13.1211C13.7147 0.243011 14.1979 0.726138 14.1979 1.31981C14.1979 1.91347 13.7147 2.3966 13.1211 2.3966ZM1.87904 0.442708C1.39531 0.442708 1.00194 0.836077 1.00194 1.31981C1.00194 1.80353 1.39531 2.1969 1.87904 2.1969H13.1211C13.6048 2.1969 13.9982 1.80353 13.9982 1.31981C13.9982 0.836077 13.6048 0.442708 13.1211 0.442708H1.87904Z" fill="black"/>
<path d="M3.1675 6.16372H11.4927C11.0397 7.69292 10.1334 8.76881 7.86804 9.95826L7.81142 16.9241L12.7385 16.9808C12.8809 17.685 13.133 18.4419 13.0782 19.1328L1.8645 19.0196C1.8883 18.3326 1.94884 17.6461 2.20426 16.9241H7.24516L7.13191 9.78808C5.23555 9.35887 3.71568 7.35648 3.1675 6.16342V6.16372Z" fill="#E9CDA7"/>
<path d="M13.186 18.9464H1.75778C1.3479 18.9464 1.01562 19.2787 1.01562 19.6886V20.1581C1.01562 20.568 1.3479 20.9003 1.75778 20.9003H13.186C13.5958 20.9003 13.9281 20.568 13.9281 20.1581V19.6886C13.9281 19.2787 13.5958 18.9464 13.186 18.9464Z" fill="#DFB57F"/>
<path d="M13.1859 21H1.75769C1.29353 21 0.915527 20.6223 0.915527 20.1581V19.6886C0.915527 19.2244 1.29323 18.8464 1.75769 18.8464H13.1859C13.65 18.8464 14.0277 19.2241 14.0277 19.6886V20.1581C14.0277 20.6223 13.65 21 13.1859 21ZM1.75769 19.0461C1.40347 19.0461 1.11552 19.3344 1.11552 19.6883V20.1578C1.11552 20.512 1.40377 20.8 1.75769 20.8H13.1859C13.5401 20.8 13.828 20.512 13.828 20.1578V19.6883C13.828 19.3341 13.5398 19.0461 13.1859 19.0461H1.75769Z" fill="black"/>
</g>
<defs>
<clipPath id="clip0_40_154">
<rect width="13.3956" height="20.757" fill="white" transform="translate(0.802246 0.243011)"/>
</clipPath>
</defs>
</svg>
