<svg width="44" height="44" viewBox="0 0 44 44" fill="none" xmlns="http://www.w3.org/2000/svg">
<circle cx="22" cy="22" r="21.5" fill="#D8E2DE" stroke="black"/>
<path d="M22 9.99997C28.6274 9.99997 34 15.3726 34 22C34 28.6274 28.6274 34 22 34C15.3726 34 10 28.6274 10 22C10 15.3726 15.3726 9.99997 22 9.99997ZM22 11C15.9249 11 11 15.9249 11 22C11 28.0751 15.9249 33 22 33C28.0751 33 33 28.0751 33 22C33 15.9249 28.0751 11 22 11ZM18.8809 16.8047C19.7903 16.5811 21.2023 16.3927 22.4893 16.5703C23.7594 16.7456 25.0936 17.3139 25.4834 18.7685C25.678 19.495 25.5315 20.1374 25.1611 20.667C24.8047 21.1764 24.2575 21.5597 23.6758 21.8476C22.8187 22.2718 21.7935 22.5333 20.915 22.6767L21.2832 24.9795L23.3916 24.5117L23.6084 25.4883L21.4414 25.9687L21.9941 29.4209L21.0059 29.5791L20.4629 26.1865L19.1084 26.4883L18.8916 25.5117L20.3047 25.1972L19.1133 17.7529L18.8809 16.8047ZM22.3525 17.5605C21.6125 17.4584 20.8047 17.4971 20.1016 17.5927L20.7568 21.6894C21.5631 21.5574 22.4869 21.3202 23.2324 20.9511C23.7376 20.7011 24.1197 20.4112 24.3418 20.0937C24.5496 19.7966 24.6318 19.4574 24.5166 19.0273C24.2864 18.1683 23.4918 17.7177 22.3525 17.5605Z" fill="black"/>
</svg>
