<svg width="44" height="44" viewBox="0 0 44 44" fill="none" xmlns="http://www.w3.org/2000/svg">
<circle cx="22" cy="22" r="21.5" fill="#D8E2DE" stroke="black"/>
<path d="M31.1709 11.624C31.3787 11.4422 31.6941 11.4632 31.8759 11.6709C32.0578 11.8787 32.0368 12.1941 31.8291 12.376C30.5219 13.5198 27.4002 16.7103 25.4375 20.2432C23.4662 23.7915 21.6446 29.3131 20.9804 31.6377L20.7021 32.6143L11.5976 20.2969L11.5459 20.21C11.4481 19.9991 11.5089 19.7412 11.7031 19.5977C11.8974 19.4543 12.1611 19.4725 12.334 19.6279L12.4023 19.7031L20.3066 30.3965C21.1305 27.7128 22.7752 22.974 24.5625 19.7568C26.5997 16.0898 29.8114 12.8136 31.1709 11.624Z" fill="black"/>
</svg>
