<svg width="44" height="44" viewBox="0 0 44 44" fill="none" xmlns="http://www.w3.org/2000/svg">
<circle cx="22" cy="22" r="22" fill="#D8E2DE"/>
<path d="M20.204 33.8648C18.5163 33.6094 16.9024 32.9968 15.4703 32.0679C14.0381 31.139 12.8206 29.9153 11.899 28.4785C10.9775 27.0416 10.3731 25.4247 10.1262 23.7356C9.87929 22.0466 9.99559 20.3243 10.4673 18.6837C10.9391 17.0432 11.7554 15.5222 12.8618 14.2223C13.9681 12.9224 15.3391 11.8735 16.8832 11.1456C18.4272 10.4177 20.1088 10.0277 21.8156 10.0014C23.5224 9.97518 25.2151 10.3134 26.7808 10.9935L22 22L20.204 33.8648Z" stroke="black"/>
<path d="M20.204 33.8648C22.9873 34.2861 25.83 33.7156 28.2351 32.253C30.6402 30.7904 32.4546 28.5288 33.3609 25.8638C34.2673 23.1988 34.2079 20.3 33.1932 17.6743C32.1785 15.0486 30.273 12.8632 27.8101 11.5003C25.3471 10.1374 22.4834 9.68375 19.7197 10.2186C16.9561 10.7535 14.4685 12.2429 12.6919 14.4264C10.9153 16.6099 9.96286 19.3484 10.0011 22.1631C10.0394 24.9777 11.0659 27.6893 12.9011 29.8237L22 22L20.204 33.8648Z" stroke="black"/>
<path d="M20.204 33.8648C17.7452 33.4927 15.4628 32.3658 13.6723 30.64C11.8818 28.9142 10.6717 26.6747 10.2093 24.2313C9.74687 21.7878 10.055 19.2611 11.0911 17.0004C12.1272 14.7396 13.8401 12.8567 15.9929 11.6118C18.1457 10.3669 20.6321 9.82161 23.1083 10.0513C25.5845 10.281 27.9281 11.2743 29.8153 12.8939C31.7024 14.5135 33.0397 16.6793 33.6423 19.092C34.245 21.5047 34.0831 24.0451 33.1792 26.3618L22 22L20.204 33.8648Z" stroke="black"/>
</svg>
