<svg width="44" height="44" viewBox="0 0 44 44" fill="none" xmlns="http://www.w3.org/2000/svg">
<circle cx="22" cy="22" r="21.5" fill="#D8E2DE" stroke="black"/>
<path d="M21.8076 9.50197C23.5856 9.47464 25.3496 9.82676 26.9805 10.5352L27.4385 10.7344L22.4844 22.1397L20.6983 33.9395L20.624 34.4336L20.1289 34.3594C18.3709 34.0932 16.69 33.4548 15.1983 32.4873C13.7064 31.5198 12.4385 30.2448 11.4785 28.7481C10.5186 27.2514 9.88903 25.567 9.63186 23.8076C9.37475 22.0484 9.49508 20.2546 9.98635 18.5459C10.4777 16.837 11.329 15.2525 12.4815 13.8984C13.6339 12.5444 15.0616 11.4516 16.6699 10.6934C18.2782 9.93521 20.0298 9.52933 21.8076 9.50197ZM21.8233 10.501C20.1877 10.5261 18.5763 10.9002 17.0967 11.5977C15.617 12.2952 14.3025 13.3002 13.2422 14.5459C12.1819 15.7917 11.4003 17.2501 10.9483 18.8223C10.4962 20.3943 10.3846 22.0446 10.6211 23.6631C10.8577 25.2818 11.4372 26.832 12.3203 28.209C13.2034 29.5857 14.3699 30.7584 15.7422 31.6485C16.9746 32.4477 18.3478 33.001 19.7862 33.2832L21.5156 21.8604L21.541 21.8008L26.1182 11.2627C24.7497 10.7378 23.2919 10.4784 21.8233 10.501Z" fill="black"/>
<path d="M19.6251 9.72752C22.5036 9.17046 25.4864 9.64303 28.0518 11.0625C30.6174 12.4822 32.6022 14.7591 33.6592 17.4941C34.7162 20.2291 34.7781 23.2484 33.834 26.0244C32.8899 28.8004 31.0005 31.1571 28.4952 32.6806C25.9899 34.2042 23.0281 34.7982 20.129 34.3594L19.6348 34.2842L21.3038 23.2578L12.8477 30.5293L12.5225 30.1494C10.6108 27.9261 9.54089 25.1018 9.50103 22.1699C9.46119 19.2382 10.4534 16.3857 12.3038 14.1113C14.1544 11.8369 16.7463 10.2847 19.6251 9.72752ZM27.5684 11.9375C25.2081 10.6314 22.463 10.1973 19.8145 10.7099C17.1662 11.2226 14.7826 12.6498 13.0801 14.7422C11.3776 16.8347 10.4644 19.4589 10.501 22.1562C10.5354 24.6862 11.4032 27.1291 12.962 29.1103L22.6963 20.7422L20.7745 33.4346C23.2816 33.7033 25.8133 33.1411 27.9756 31.8262C30.2804 30.4245 32.0191 28.257 32.8878 25.7031C33.7563 23.1491 33.699 20.3707 32.7266 17.8545C31.7542 15.3383 29.9287 13.2436 27.5684 11.9375Z" fill="black"/>
<path d="M15.7422 11.1787C17.9847 9.88197 20.575 9.31449 23.1543 9.5537C25.7337 9.79294 28.1749 10.8276 30.1406 12.5146C32.1063 14.2017 33.4992 16.4576 34.127 18.9707C34.7547 21.4839 34.5861 24.1307 33.6445 26.5439L33.4629 27.0098L32.9971 26.8271L22.4004 22.6924L20.6983 33.9394L20.624 34.4336L20.1289 34.3594C17.5678 33.9716 15.1903 32.7976 13.3252 31C11.4601 29.2023 10.1994 26.8695 9.71779 24.3242C9.23614 21.779 9.55747 19.1469 10.6367 16.792C11.716 14.4372 13.4998 12.4754 15.7422 11.1787ZM23.0625 10.5488C20.6895 10.3287 18.3063 10.8519 16.2432 12.0449C14.1801 13.2379 12.5388 15.0425 11.5459 17.209C10.553 19.3754 10.2571 21.7971 10.7002 24.1387C11.1434 26.4802 12.3037 28.6264 14.0195 30.2803C15.6151 31.818 17.6186 32.8579 19.7861 33.2832L21.5996 21.3066L32.8838 25.7099C33.5966 23.6189 33.6943 21.3631 33.1572 19.2129C32.5797 16.9008 31.2977 14.8255 29.4893 13.2734C27.6809 11.7215 25.4353 10.769 23.0625 10.5488Z" fill="black"/>
</svg>
