<svg width="44" height="44" viewBox="0 0 44 44" fill="none" xmlns="http://www.w3.org/2000/svg">
<circle cx="22" cy="22" r="22" fill="#D8E2DE"/>
<path d="M18.2899 8.22473C23.0965 7.39498 27.9691 10.7061 30.5448 16.0997L32.8769 14.3497L33.6396 11.3038L33.6737 11.2081C33.7742 10.9987 34.0118 10.8813 34.246 10.9396C34.5138 11.0066 34.6762 11.2782 34.6093 11.546L34.1464 13.3976L34.9042 12.8302L35.5771 10.1417L35.6112 10.046C35.7117 9.83652 35.9493 9.7191 36.1835 9.77747C36.4513 9.84449 36.6137 10.1161 36.5468 10.3839L36.1728 11.8781L37.3124 11.0245C37.5332 10.8593 37.846 10.9046 38.0116 11.1251C38.1773 11.346 38.1329 11.6596 37.912 11.8253L36.5292 12.8624H37.9999L38.1005 12.8732C38.3281 12.9199 38.4997 13.1211 38.4999 13.3624C38.4998 13.6038 38.3281 13.806 38.1005 13.8527L37.9999 13.8624H35.287C35.2598 13.8624 35.2334 13.857 35.2069 13.8527L34.9774 14.0245H36.0624L36.163 14.0353C36.3906 14.082 36.5622 14.2832 36.5624 14.5245C36.5624 14.7661 36.3907 14.9681 36.163 15.0148L36.0624 15.0245H33.6444L30.9618 17.0363C31.3976 18.0984 31.7479 19.2304 31.994 20.4191C33.6428 28.3822 30.0536 35.8585 23.9765 37.1173L23.6913 37.171C17.704 38.2051 11.6084 32.8149 9.98526 24.9757C8.33669 17.0125 11.9273 9.53685 18.0048 8.27844L18.2899 8.22473ZM26.0048 11.6466C23.6539 9.60657 20.8765 8.7056 18.2079 9.25793C15.5392 9.8105 13.3475 11.7401 11.9999 14.546C10.6519 17.3529 10.1809 20.9874 10.9648 24.7736C11.7488 28.5596 13.6238 31.7083 15.9755 33.7491C18.3265 35.7893 21.1046 36.6904 23.7733 36.1378C26.4419 35.5851 28.6338 33.6554 29.9814 30.8497C31.3293 28.0427 31.7985 24.4074 31.0146 20.6212C30.7993 19.582 30.4996 18.5918 30.1327 17.6583L28.3505 18.9952C28.6322 19.687 28.8604 20.4227 29.0204 21.1954L29.1122 21.6866C29.9578 26.7497 27.6148 31.4005 23.7333 32.2042L23.3573 32.2697C19.4715 32.8084 15.5629 29.2862 14.5097 24.2003C13.4226 18.95 15.7899 14.0212 19.7968 13.1915L20.1718 13.1261C23.1944 12.7066 26.23 14.7451 27.9257 18.0646L29.7294 16.7111C28.7798 14.6612 27.4877 12.9335 26.0048 11.6466ZM24.8485 15.6691C23.3603 14.3775 21.6332 13.8321 19.9999 14.17C18.3665 14.5082 16.9976 15.6944 16.1444 17.4708C15.2909 19.2483 14.9861 21.5676 15.4892 23.9972C15.9922 26.4267 17.1925 28.4343 18.6815 29.7267C20.1699 31.0183 21.8969 31.5628 23.5302 31.2247C25.1635 30.8865 26.5325 29.7012 27.3857 27.9249C28.2391 26.1475 28.5439 23.828 28.0409 21.3986C27.9118 20.775 27.7355 20.1794 27.5214 19.6163L25.455 21.1661C25.562 21.4429 25.6505 21.7348 25.7138 22.0402C26.1893 24.3365 25.1538 26.4934 23.4013 26.8566L23.2372 26.8839C21.5373 27.1198 19.8268 25.5794 19.3661 23.3546C18.8908 21.0582 19.927 18.9021 21.6796 18.5392L21.8437 18.5118C23.0354 18.3465 24.2295 19.0553 24.997 20.2599L27.1112 18.6749C26.5157 17.4614 25.7345 16.4381 24.8485 15.6691ZM23.5194 20.048C22.9702 19.5715 22.3879 19.414 21.8817 19.5187C21.3756 19.6236 20.9036 19.9998 20.5888 20.6554C20.2736 21.312 20.1485 22.199 20.3456 23.1515C20.5429 24.1043 21.0102 24.8703 21.5605 25.3478C22.1098 25.8244 22.6929 25.9819 23.1991 25.8771C23.7051 25.772 24.1763 25.3957 24.4911 24.7404C24.8064 24.0837 24.9315 23.196 24.7343 22.2433C24.7024 22.0891 24.6594 21.9409 24.6142 21.797L23.9618 22.2872C23.7409 22.4526 23.4272 22.4084 23.2616 22.1876C23.0963 21.9668 23.1417 21.6531 23.3622 21.4874L24.1942 20.8624C23.997 20.5391 23.7677 20.2634 23.5194 20.048Z" fill="black"/>
</svg>
