<svg width="44" height="44" viewBox="0 0 44 44" fill="none" xmlns="http://www.w3.org/2000/svg">
<circle cx="22" cy="22" r="22" fill="#D8E2DE"/>
<path d="M9.76069 14.5605C9.97289 14.4451 10.2319 14.4999 10.3818 14.6777L10.4394 14.7607L15.249 23.6054C15.2935 23.407 15.3412 23.2079 15.3994 22.9941C15.5792 22.3336 15.8594 21.5085 16.4433 20.0175C17.1947 18.0988 18.5701 16.1837 19.0361 15.4697L19.1025 15.3876C19.1776 15.3132 19.2754 15.2637 19.3818 15.248C19.5232 15.2272 19.6669 15.2683 19.7763 15.3603L33.4999 26.9238V22.9999C33.5 22.7239 33.7239 22.5 33.9999 22.4999C34.276 22.4999 34.4999 22.7239 34.4999 22.9999V28.9999C34.4999 29.1596 34.4238 29.3101 34.2949 29.4042C34.166 29.4982 33.9996 29.5251 33.8476 29.4765L28.8476 27.8759C28.5849 27.7917 28.4396 27.5108 28.5234 27.248C28.6076 26.9851 28.8894 26.8398 29.1523 26.9238L33.4999 28.3144V28.2324L19.5595 16.4843C18.9527 17.389 17.9605 18.8869 17.3749 20.3818C16.7954 21.8617 16.5299 22.6473 16.3642 23.2558C16.1945 23.8792 16.1321 24.2985 15.9423 25.1386C15.8965 25.3416 15.7295 25.4947 15.5234 25.5234C15.3173 25.5519 15.1151 25.4502 15.0156 25.2675L9.5605 15.2392L9.52143 15.1454C9.45368 14.9232 9.54867 14.6759 9.76069 14.5605Z" fill="black"/>
</svg>
