<svg width="44" height="44" viewBox="0 0 44 44" fill="none" xmlns="http://www.w3.org/2000/svg">
<circle cx="22" cy="22" r="22" fill="#D8E2DE"/>
<path d="M31.1709 11.624C31.3787 11.4422 31.6941 11.4631 31.876 11.6709C32.0578 11.8787 32.0369 12.1941 31.8291 12.376C30.5219 13.5197 27.4002 16.7102 25.4375 20.2431C23.4662 23.7914 21.6446 29.3131 20.9805 31.6377L20.7021 32.6142L11.5977 20.2969L11.5459 20.2099C11.4481 19.999 11.5089 19.7412 11.7031 19.5976C11.8974 19.4543 12.1612 19.4725 12.334 19.6279L12.4023 19.7031L20.3066 30.3965C21.1305 27.7128 22.7752 22.974 24.5625 19.7568C26.5997 16.0898 29.8114 12.8136 31.1709 11.624Z" fill="black"/>
</svg>
