<svg width="71" height="69" viewBox="0 0 71 69" fill="none" xmlns="http://www.w3.org/2000/svg">
<g clip-path="url(#clip0_30_140)">
<mask id="mask0_30_140" style="mask-type:luminance" maskUnits="userSpaceOnUse" x="0" y="0" width="71" height="69">
<path d="M71 0H0V68.3375H71V0Z" fill="white"/>
</mask>
<g mask="url(#mask0_30_140)">
<path d="M51.9866 4.4375L48.9274 3.39339L48.8543 3.53956C46.7556 3.06971 44.5421 2.81912 42.2241 2.81912C24.6203 2.80868 7.71605 17.0818 4.46885 34.6856C2.03605 47.8937 7.97708 59.2224 18.5331 64.0566L18.4809 64.1715L21.0077 65.0381C23.8999 66.0196 27.074 66.5521 30.4778 66.5521C48.0816 66.5521 64.9859 52.279 68.2227 34.6751C70.8225 20.59 63.8791 8.6453 51.9866 4.42706V4.4375Z" fill="#749484"/>
<path d="M53.0308 55.3487C67.2934 42.339 70.0812 22.1771 59.2537 10.3159C48.4366 -1.54529 28.1077 -0.61603 13.845 12.3937C-0.417634 25.3929 -3.20543 45.5549 7.62207 57.4265C18.4391 69.2876 38.7785 68.3584 53.0308 55.3591V55.3487Z" fill="#749484"/>
<path d="M46.954 48.6141C56.8835 39.5512 58.8256 25.5078 51.2871 17.2384C43.7485 8.96897 29.5799 9.61632 19.6503 18.6793C9.72075 27.7422 7.77869 41.7856 15.3172 50.055C22.8557 58.3244 37.0244 57.6771 46.954 48.6141Z" fill="white"/>
<path d="M40.6266 41.6812C45.9621 36.8156 47.0062 29.2771 42.955 24.8396C38.9039 20.4021 31.3027 20.7466 25.9777 25.6122C20.6422 30.4778 19.5981 38.0163 23.6493 42.4538C27.7005 46.8913 35.3016 46.5468 40.6266 41.6812Z" fill="#749484"/>
<path d="M5.42942 11.2451L6.89118 7.42368C7.02692 7.06868 7.47589 6.97471 7.74736 7.23574L14.4924 13.8554C14.6594 14.0225 14.7012 14.2731 14.5863 14.4819L13.6571 16.1629C13.5109 16.424 13.1768 16.5075 12.9262 16.3509L5.63824 11.8716C5.42942 11.7359 5.33545 11.4749 5.42942 11.2451Z" fill="#F5ECDA"/>
<path d="M4.55236 13.1037L1.82721 16.1212C1.56618 16.4031 1.69148 16.8625 2.04648 16.9878L10.9841 20.0157C11.2138 20.0888 11.4644 20.0157 11.5897 19.8069L12.6652 18.2303C12.8322 17.9797 12.7591 17.6351 12.5085 17.4785L5.23103 13.0097C5.01177 12.874 4.72986 12.9157 4.5628 13.1037H4.55236Z" fill="#F5ECDA"/>
<path d="M7.81001 15.0144L3.87369 17.1653C3.65442 17.2801 3.8528 17.6143 4.07207 17.4994C5.38766 16.779 6.6928 16.069 8.00839 15.3485C8.22766 15.2337 8.02927 14.8996 7.81001 15.0144Z" fill="#2F1309"/>
<path d="M11.3391 16.5806C10.0236 17.1757 8.73929 17.8126 7.44458 18.4496C7.22532 18.554 7.41326 18.8881 7.64297 18.7837C8.93767 18.1468 10.2219 17.5098 11.5375 16.9147C11.7672 16.8103 11.5688 16.4762 11.3391 16.5806Z" fill="#2F1309"/>
<path d="M12.1744 12.0282C12.07 13.5213 11.9552 15.0144 11.8508 16.4971C11.8299 16.7476 12.2162 16.7476 12.2371 16.4971C12.3415 15.004 12.4563 13.5109 12.5608 12.0282C12.5816 11.7776 12.1953 11.7776 12.1744 12.0282Z" fill="#2F1309"/>
<path d="M9.42841 9.35529C9.42841 10.7962 9.38664 12.2371 9.34488 13.6675C9.34488 13.9181 9.72076 13.9181 9.7312 13.6675C9.77297 12.2266 9.81473 10.7857 9.81473 9.35529C9.81473 9.1047 9.42841 9.1047 9.42841 9.35529Z" fill="#2F1309"/>
<path d="M35.0615 29.9244L4.15562 10.0549C3.644 9.74162 2.88179 9.8878 2.25532 10.7126C1.60797 11.5688 1.6915 12.3206 2.20312 12.7069C2.224 12.7278 2.24488 12.7382 2.2762 12.7487H2.29709V12.7696L34.3724 30.8328C34.5394 30.9685 34.8422 30.8641 35.0302 30.6135C35.2286 30.3629 35.239 30.0497 35.0719 29.914L35.0615 29.9244Z" fill="#2F1309"/>
<path d="M4.03029 10.4307C4.24956 10.8379 3.96765 11.4018 3.7275 11.7359C3.46647 12.1013 3.02794 12.4981 2.55809 12.4876C2.3075 12.4876 2.3075 12.8635 2.55809 12.874C3.17412 12.8949 3.7275 12.4041 4.06162 11.9343C4.38529 11.4749 4.65676 10.7753 4.36441 10.2428C4.24956 10.0235 3.91544 10.2219 4.03029 10.4412V10.4307Z" fill="#8A523E"/>
<path d="M7.7578 41.18L7.36103 44.6987C7.32971 45.0224 7.6325 45.2729 7.94574 45.179L15.7662 42.7879C15.9646 42.7253 16.0899 42.5478 16.0899 42.3494L16.0481 40.6893C16.0481 40.4282 15.8184 40.2298 15.5678 40.2507L8.18589 40.7832C7.96662 40.8041 7.78912 40.9712 7.76824 41.18H7.7578Z" fill="#F5ECDA"/>
<path d="M10.9528 41.0234C10.3681 42.1823 9.78341 43.3309 9.1987 44.4898C9.08385 44.7091 9.41797 44.9075 9.53282 44.6882C10.1175 43.5293 10.7022 42.3807 11.2869 41.2218C11.4018 41.0025 11.0677 40.8041 10.9528 41.0234Z" fill="#2F1309"/>
<path d="M14.1791 40.2612C13.5422 41.3262 12.9262 42.4121 12.3206 43.4979C12.1953 43.7172 12.5294 43.9051 12.6547 43.6963C13.2603 42.6104 13.8763 41.5246 14.5133 40.4596C14.6385 40.2507 14.3044 40.0524 14.1791 40.2612Z" fill="#2F1309"/>
<path d="M7.51765 39.5721L6.61971 36.1682C6.53618 35.8446 6.80765 35.5418 7.13132 35.594L15.1919 36.8365C15.4007 36.8678 15.5574 37.0349 15.5782 37.2332L15.7766 38.8725C15.8079 39.1335 15.6096 39.3632 15.3485 39.3841L7.97706 39.9166C7.75779 39.9375 7.55941 39.7913 7.49676 39.5721H7.51765Z" fill="#F5ECDA"/>
<path d="M12.4772 36.7425C13.135 37.8597 13.7824 38.9769 14.4402 40.0941C14.5655 40.3029 14.8996 40.115 14.7743 39.8957C14.1165 38.7785 13.4691 37.6613 12.8113 36.5441C12.686 36.3353 12.3519 36.5232 12.4772 36.7425Z" fill="#2F1309"/>
<path d="M9.20913 36.1787C9.91913 37.2019 10.5874 38.2565 11.266 39.3006C11.4018 39.5094 11.7359 39.311 11.6002 39.1022C10.9215 38.0581 10.2532 37.0035 9.54324 35.9803C9.40751 35.7819 9.07339 35.9698 9.20913 36.1787Z" fill="#2F1309"/>
<path d="M33.5684 38.8621C33.5057 38.4966 33.2551 38.2356 33.015 38.2774L4.9178 39.3319H4.85515C4.85515 39.3319 4.82382 39.3319 4.81338 39.3319C4.32265 39.4154 3.95721 39.9584 4.10338 40.8041C4.24956 41.6394 4.80294 42.0362 5.29368 41.9631L33.2343 39.5929C33.4744 39.5512 33.6206 39.2275 33.5579 38.8621H33.5684Z" fill="#2F1309"/>
<path d="M5.08486 39.7391C5.37722 39.8331 5.51295 40.2821 5.54428 40.564C5.59648 40.9085 5.56516 41.3784 5.28325 41.6394C5.10575 41.8065 5.37722 42.0779 5.55472 41.9109C5.9306 41.5559 5.98281 40.9503 5.90972 40.4596C5.84707 40.0315 5.62781 39.5094 5.17884 39.3632C4.93869 39.2902 4.84472 39.6556 5.07442 39.7391H5.08486Z" fill="#8A523E"/>
<path d="M53.8765 5.80529C74.3621 21.1434 66.9488 45.1372 48.6455 58.575C42.9863 62.6575 36.304 65.1947 29.4337 66.2284C36.21 64.9232 42.7566 62.219 48.2905 58.0843C66.1135 44.5316 73.391 21.5506 53.8765 5.79485V5.80529Z" fill="black"/>
</g>
<path d="M29.4546 66.7191C29.298 66.7191 29.1413 66.7191 28.9847 66.7191C25.4869 66.6669 17.2906 66.5625 10.1697 60.6737C-1.15896 51.3184 0.480306 35.8341 0.699571 34.1009C1.60795 27.0531 4.81339 21.749 7.34016 18.5331L7.95619 19.0134C5.49207 22.1457 2.35972 27.335 1.48266 34.1949C1.26339 35.8863 -0.323665 50.9738 10.6709 60.0576C17.583 65.769 25.5809 65.8734 28.9952 65.9256C41.6081 66.0822 58.2931 59.0448 64.9755 43.1534C65.2991 42.3807 72.8063 24.1087 62.2816 11.5688C56.6852 4.90735 48.9065 3.38294 45.983 2.81912C30.081 -0.292354 17.1653 9.62676 13.584 12.7487L13.0724 12.1535C16.7163 8.97941 29.8722 -1.11721 46.1291 2.04647C49.1362 2.63118 57.1133 4.18691 62.8768 11.0676C73.7043 23.9625 66.0196 42.6731 65.6959 43.4666C58.9613 59.5043 42.2972 66.7191 29.4546 66.7191Z" fill="black"/>
<path d="M14.0747 16.4448L13.3856 16.069L14.3566 14.2731C14.3984 14.2 14.3775 14.1165 14.3253 14.0643L7.65338 7.73691C7.60117 7.6847 7.53852 7.6847 7.49676 7.69514C7.46544 7.69514 7.40279 7.72647 7.37147 7.79956L5.84705 11.1512L5.13705 10.8275L6.66147 7.47588C6.78676 7.19397 7.04779 6.98514 7.35058 6.93294C7.65338 6.87029 7.96661 6.96426 8.19632 7.17308L14.8682 13.49C15.1815 13.7823 15.2546 14.2626 15.0562 14.6385L14.0851 16.4448H14.0747Z" fill="black"/>
<path d="M11.1198 20.4334C11.0154 20.4334 10.911 20.4125 10.817 20.3812L2.21352 17.3532C1.93161 17.2593 1.72279 17.0296 1.63926 16.7476C1.55573 16.4657 1.61837 16.1525 1.79587 15.9228L3.71705 13.4796L4.33308 13.9599L2.4119 16.4031C2.4119 16.4031 2.38058 16.4971 2.39102 16.5284C2.39102 16.5493 2.42234 16.6015 2.47455 16.6224L11.0781 19.6503C11.1407 19.6712 11.1929 19.6503 11.2347 19.5981L12.2475 18.2199L12.874 18.6897L11.8612 20.0679C11.6837 20.3081 11.4122 20.4438 11.1198 20.4438V20.4334Z" fill="black"/>
<path d="M7.00602 39.4154L6.07676 36.21C6.00367 35.9594 6.06632 35.6984 6.23338 35.5C6.40043 35.3016 6.65102 35.2181 6.91205 35.239L15.4425 36.3666C15.7975 36.4188 16.069 36.7007 16.1003 37.0557L16.2778 38.9456L15.4947 39.0187L15.3172 37.1288L6.7972 36.0116L7.74735 39.1962L6.99558 39.4154H7.00602Z" fill="black"/>
<path d="M7.54896 45.4818C7.37146 45.4818 7.2044 45.4191 7.06866 45.3043C6.88072 45.1372 6.79719 44.8971 6.82852 44.6569L7.26705 41.6916L8.03969 41.8065L7.6116 44.6778L15.8079 42.3912L15.714 41.0129L16.497 40.9816L16.5388 42.4225C16.5493 42.7566 16.33 43.0594 16.0063 43.1429L7.71602 45.4609C7.65337 45.4818 7.59072 45.4922 7.51763 45.4922L7.54896 45.4818Z" fill="black"/>
</g>
<defs>
<clipPath id="clip0_30_140">
<rect width="71" height="68.3375" fill="white"/>
</clipPath>
</defs>
</svg>
