<svg width="17" height="22" viewBox="0 0 17 22" fill="none" xmlns="http://www.w3.org/2000/svg">
<g clip-path="url(#clip0_36_1455)">
<path d="M7.64932 0H8.4893C8.83276 0.059082 9.18043 0.0993652 9.51863 0.181006C12.2805 0.849707 14.2829 3.3709 14.3297 6.27397C14.3392 6.85352 14.335 7.43359 14.3376 8.01313C14.3376 8.08833 14.3376 8.16353 14.3376 8.25C14.7768 8.25 15.1823 8.24785 15.5879 8.25054C15.9576 8.25269 16.1317 8.42617 16.1317 8.80107C16.1328 12.5737 16.1338 16.3464 16.1312 20.119C16.1312 20.7432 15.905 21.2781 15.3943 21.6299C15.1418 21.804 14.8247 21.8797 14.537 22H1.60166C1.58956 21.993 1.57799 21.9823 1.56484 21.9801C0.640701 21.8501 -0.00519621 21.0488 -0.000462432 19.9901C0.0158428 16.2889 0.00584927 12.5882 0.00584927 8.88701C0.00584927 8.39717 0.151018 8.25054 0.63439 8.25C1.01677 8.25 1.39863 8.25 1.80048 8.25C1.80048 7.6667 1.80363 7.10972 1.79995 6.55273C1.79206 5.45972 2.00876 4.41987 2.51528 3.45469C3.35999 1.84443 4.63759 0.76377 6.35752 0.257275C6.77725 0.13374 7.21802 0.0837891 7.64879 0H7.64932ZM11.6499 8.24033C11.6499 7.71719 11.6604 7.21606 11.6462 6.71548C11.6362 6.35239 11.6362 5.97964 11.5573 5.62891C11.1286 3.7168 9.44921 2.53945 7.54728 2.79351C6.0351 2.99546 4.7391 4.28613 4.54554 5.8373C4.47401 6.40879 4.50294 6.99424 4.48926 7.57324C4.484 7.79238 4.48821 8.01206 4.48821 8.24087H11.6494L11.6499 8.24033ZM8.05064 18.3364C8.32362 18.3364 8.5966 18.3407 8.86906 18.3353C9.27038 18.3272 9.44658 18.107 9.40029 17.6967C9.31193 16.9152 9.22672 16.1332 9.14782 15.3506C9.14151 15.2867 9.17412 15.1954 9.21988 15.1535C9.69694 14.7168 9.9026 14.1829 9.84001 13.5255C9.7406 12.483 8.65498 11.6982 7.66247 11.97C6.95082 12.165 6.48534 12.6301 6.32649 13.3611C6.17554 14.0567 6.38119 14.6588 6.90559 15.1427C6.95924 15.1921 6.99395 15.3006 6.98659 15.3758C6.90927 16.1584 6.82143 16.9404 6.73623 17.7225C6.69415 18.107 6.87298 18.3246 7.25326 18.3348C7.51888 18.3423 7.78502 18.3364 8.05064 18.3364Z" fill="#283B41"/>
</g>
<defs>
<clipPath id="clip0_36_1455">
<rect width="16.1333" height="22" fill="white"/>
</clipPath>
</defs>
</svg>
