<svg width="18" height="13" viewBox="0 0 18 13" fill="none" xmlns="http://www.w3.org/2000/svg">
<g clip-path="url(#clip0_30_132)">
<path d="M6.41 10.04C6.47 9.94999 6.50999 9.86999 6.58 9.79999C9.7 6.67999 12.83 3.54999 15.95 0.429986C16.28 0.0999857 16.65 -0.0800142 17.13 0.0399858C17.91 0.249986 18.23 1.17999 17.73 1.80999C17.68 1.87999 17.62 1.93999 17.56 1.99999C14.13 5.42999 10.69 8.86999 7.26 12.3C6.92 12.64 6.52999 12.82 6.06 12.66C5.87 12.6 5.68 12.47 5.53 12.33C3.81 10.62 2.1 8.90999 0.379995 7.18999C-0.110005 6.69999 -0.120005 6.01999 0.329995 5.55999C0.789995 5.09999 1.48 5.10999 1.97 5.60999C3.37 7.00999 4.77 8.40999 6.17 9.80999C6.23 9.86999 6.29 9.92999 6.4 10.03L6.41 10.04Z" fill="#749484"/>
</g>
<defs>
<clipPath id="clip0_30_132">
<rect width="17.97" height="12.73" fill="white"/>
</clipPath>
</defs>
</svg>
